<?xml version="1.0" standalone="no"?>
<!DOCTYPE svg PUBLIC "-//W3C//DTD SVG 20010904//EN"
 "http://www.w3.org/TR/2001/REC-SVG-20010904/DTD/svg10.dtd">
<svg version="1.0" xmlns="http://www.w3.org/2000/svg"
 width="468pt" height="258pt" viewBox="0 0 468 258"
 preserveAspectRatio="xMidYMid meet">
<metadata>
Created by potrace 1.8, written by Peter Selinger 2001-2007
</metadata>
<g transform="translate(0,258) scale(0.036562,-0.036563)"
fill="#000000" stroke="none">
<path d="M5909 4073 c-1 -5 -1 -11 0 -16 0 -4 -1245 -6 -2768 -5 -2651 3
-2770 2 -2780 -15 -7 -10 -15 -15 -20 -12 -11 6 -28 -15 -29 -35 -1 -19 -8
-62 -13 -75 -2 -5 3 -32 11 -59 11 -35 24 -55 45 -68 29 -19 65 -19 1315 -15
707 3 1295 8 1308 12 19 7 22 4 22 -23 0 -29 -1 -30 -37 -22 -21 5 -116 11
-211 15 -174 6 -174 6 -196 -17 -23 -26 -28 -46 -29 -118 0 -64 11 -111 31
-126 13 -10 72 -13 235 -14 l217 0 1 -27 c1 -16 1 -33 0 -40 -1 -6 9 -19 21
-27 20 -14 142 -16 1175 -16 634 0 1153 3 1154 8 8 73 8 102 -1 102 -5 0 -10
5 -10 12 0 9 3 9 12 0 9 -9 83 -12 273 -12 144 0 264 -2 267 -6 3 -3 240 -5
527 -4 l521 1 0 -41 c0 -43 3 -46 60 -54 19 -3 46 -8 60 -11 14 -3 36 -7 50
-10 14 -2 48 -8 75 -14 28 -6 60 -12 72 -14 12 -2 81 -55 153 -118 85 -74 142
-116 163 -121 92 -20 203 -26 257 -14 82 17 167 33 191 35 15 1 76 98 71 114
-1 4 3 7 9 7 5 0 8 3 6 8 -7 12 38 87 51 85 7 -2 12 2 12 7 0 6 7 10 15 10 8
0 15 5 15 11 0 5 5 7 10 4 6 -3 13 1 16 9 3 9 10 13 15 10 5 -3 9 -1 9 4 0 5
10 14 23 21 21 11 39 4 195 -86 l172 -98 170 -234 c194 -266 232 -302 290
-271 10 5 38 12 61 15 24 3 55 7 69 10 14 2 108 19 210 38 102 19 192 35 200
35 8 1 29 4 45 7 17 3 35 6 40 6 9 1 247 -81 480 -166 55 -20 129 -45 165 -56
36 -12 79 -27 95 -34 17 -7 62 -23 100 -35 39 -13 75 -25 80 -29 12 -7 175
-64 265 -92 36 -12 79 -27 95 -34 17 -8 64 -25 105 -39 100 -33 217 -74 375
-131 72 -26 145 -51 164 -57 18 -5 66 -23 107 -39 40 -16 77 -29 82 -29 12 0
33 56 25 64 -3 3 -1 12 5 19 7 8 9 17 6 20 -3 3 -2 12 2 19 4 7 9 19 9 28 1 8
39 157 85 330 l82 315 -7 145 c-4 80 -9 170 -10 200 -2 30 -6 99 -10 153 -7
89 -10 97 -29 98 -12 0 -28 2 -36 4 -45 9 -102 16 -160 21 -132 9 -196 14
-255 19 -33 3 -91 8 -130 11 -38 3 -92 7 -120 9 -27 2 -81 6 -120 9 -38 3 -99
8 -135 11 -36 3 -90 8 -120 10 -30 2 -84 6 -120 9 -36 3 -96 8 -135 11 -68 5
-141 11 -255 20 -30 3 -86 7 -125 10 -38 3 -97 7 -130 10 -33 3 -93 7 -133 10
-40 3 -99 8 -130 10 -31 3 -86 8 -122 10 -36 3 -92 8 -125 10 -33 3 -100 8
-150 12 -100 8 -145 8 -190 0 -16 -3 -46 -8 -65 -12 -19 -3 -48 -8 -65 -11
-16 -3 -41 -7 -55 -10 -33 -6 -65 -11 -118 -19 -41 -6 -63 4 -430 189 -295
150 -399 197 -437 202 -54 6 -70 8 -130 18 -22 4 -55 9 -74 12 -40 5 -84 13
-126 22 -43 9 -1905 14 -1906 5z m1904 -70 c-7 -2 -19 -2 -25 0 -7 3 -2 5 12
5 14 0 19 -2 13 -5z m-1643 -29 c58 -2 344 -4 635 -3 1074 2 1154 1 1215 -19
19 -7 51 -12 71 -12 23 0 42 -7 54 -20 10 -11 22 -17 28 -13 7 4 7 0 1 -13 -5
-10 -10 -70 -10 -132 -1 -72 -6 -118 -14 -127 -10 -12 -9 -15 4 -15 24 0 31
-26 13 -53 -12 -18 -12 -24 -1 -35 7 -7 11 -19 8 -27 -8 -20 -40 -19 -48 1 -3
8 -11 12 -17 9 -6 -4 -8 -13 -6 -20 4 -8 -12 -16 -45 -23 -60 -14 -111 -15
-104 -3 4 5 0 12 -6 15 -7 3 15 4 49 2 47 -3 63 0 67 11 7 16 -19 47 -32 39
-5 -3 -42 -6 -82 -7 -52 -1 -75 2 -78 11 -4 10 -6 10 -12 0 -9 -14 -184 -15
-223 -2 -12 5 -78 7 -147 6 -69 -1 -134 -3 -145 -3 -11 0 -85 2 -164 5 -96 4
-147 2 -154 -5 -15 -15 -279 -15 -294 0 -11 11 -88 8 -189 -7 -24 -3 -51 -1
-62 5 -14 8 -59 8 -158 -1 -103 -8 -149 -8 -183 1 -31 7 -69 8 -116 2 -112
-14 -130 3 -117 108 5 39 13 57 27 65 45 25 45 40 0 89 -32 34 -35 44 -35 96
0 32 -6 63 -12 70 -11 11 -9 13 8 9 12 -3 39 -2 60 2 21 5 55 6 74 3 19 -3 82
-7 140 -9z m-4592 -6 c10 -10 87 -12 332 -9 236 2 320 0 320 -8 0 -9 -31 -10
-113 -5 -97 6 -114 4 -126 -10 -13 -15 -12 -30 4 -68 6 -15 2 -18 -21 -18 -42
0 -52 10 -56 55 l-3 40 -89 -4 c-59 -2 -95 -8 -104 -17 -11 -11 -11 -14 0 -15
8 0 9 -2 2 -5 -7 -3 -9 -14 -7 -25 5 -19 2 -20 -55 -18 -40 2 -66 -2 -77 -11
-13 -11 -21 -11 -36 -2 -12 8 -79 13 -191 14 l-173 2 170 6 c158 5 163 6 75
11 l-95 5 120 3 c66 1 129 6 140 10 41 16 -54 21 -421 21 -326 0 -374 -2 -374
-15 0 -20 -66 -21 -74 0 -4 12 -34 15 -158 17 -84 2 40 4 276 5 236 2 431 5
434 8 3 3 -195 5 -439 5 -297 1 -438 4 -427 10 11 7 218 9 566 8 429 -2 552 0
561 10 15 15 24 15 39 0z m2118 -3 c4 -8 12 -15 19 -15 7 0 15 7 19 15 3 8 14
15 25 15 10 0 21 -7 25 -15 6 -17 46 -21 46 -5 0 6 19 10 43 9 41 -1 41 -1 10
-9 -17 -4 -39 -15 -48 -24 -28 -27 -205 -16 -205 13 0 28 57 42 66 16z m-962
-8 c196 1 209 0 213 -18 5 -17 15 -19 87 -19 87 0 103 5 85 27 -6 7 -10 13 -8
13 52 4 377 3 339 -1 l-55 -6 70 -3 70 -4 -62 -3 c-35 -2 -63 -8 -63 -13 0 -6
-56 -10 -134 -10 -128 0 -175 -10 -127 -28 11 -4 19 -11 18 -17 -1 -7 268 -11
789 -13 l790 -2 37 -34 c39 -35 47 -63 22 -72 -19 -8 -20 -24 -1 -24 8 0 17
-6 19 -12 3 -8 6 -6 6 5 1 9 5 17 11 17 11 0 2 60 -11 75 -11 11 -12 38 -1 32
4 -3 28 -8 54 -11 26 -4 68 -10 92 -15 32 -6 49 -5 56 4 7 9 -11 14 -71 22
-48 6 -85 17 -90 24 -12 20 9 24 108 21 159 -4 225 -4 252 3 l26 7 -23 12
c-21 11 -18 12 30 13 29 0 55 -3 58 -7 3 -5 23 -5 45 -1 22 4 81 4 130 1 l90
-5 -80 -6 -80 -5 83 -2 c53 -1 81 -6 77 -12 -4 -7 -70 -9 -180 -6 -95 2 -179
0 -186 -5 -9 -6 0 -9 26 -10 22 -1 54 -5 70 -9 l30 -8 -30 -2 -30 -2 30 -7
c28 -7 26 -8 -22 -15 -69 -10 -78 -26 -15 -26 27 0 69 -7 92 -15 33 -12 92
-15 261 -15 120 0 229 4 243 10 21 8 26 6 31 -11 4 -11 4 -23 2 -26 -3 -3
-118 -4 -254 -4 -143 1 -260 -2 -275 -8 -31 -12 -41 -5 -27 20 8 16 6 19 -18
19 -48 1 -136 11 -193 21 -91 17 -111 19 -105 10 5 -8 21 -12 128 -27 23 -3
47 -9 52 -13 6 -4 36 -16 68 -26 l57 -19 0 -87 c0 -48 3 -94 6 -102 4 -11 -3
-17 -23 -21 -16 -4 -35 -16 -43 -26 -16 -22 -69 -27 -87 -9 -6 6 -19 9 -29 6
-15 -4 -14 -5 4 -6 13 0 21 -5 18 -9 -8 -13 -205 -5 -222 9 -13 10 -12 15 6
34 24 25 25 35 5 35 -8 0 -15 -7 -15 -15 0 -8 -9 -15 -19 -15 -11 0 -22 -4
-26 -9 -3 -5 -33 -10 -67 -10 -102 0 -103 -32 0 -35 41 -1 47 -4 50 -25 2 -14
0 -21 -6 -17 -6 3 -70 9 -144 12 -73 3 -137 9 -143 13 -10 6 -104 6 -262 -1
-40 -2 -73 -1 -73 2 0 4 9 16 20 28 24 25 24 28 6 35 -8 3 -30 -7 -48 -24 -29
-25 -38 -28 -74 -23 -26 4 -44 2 -48 -5 -10 -16 -38 14 -34 37 2 11 14 18 33
20 17 2 36 8 43 14 8 7 12 7 12 -1 0 -6 11 -11 25 -11 29 0 32 16 9 48 -22 31
-54 29 -54 -4 0 -23 -3 -25 -32 -22 -41 4 -42 18 -3 38 l30 15 -29 3 c-16 2
-32 -2 -37 -9 -6 -10 -16 -10 -45 -1 -21 6 -41 8 -44 3 -10 -16 -65 -20 -84
-6 -13 10 -24 11 -36 5 -13 -7 -20 -6 -24 5 -8 22 -26 18 -26 -5 0 -21 -33
-29 -45 -10 -12 19 -63 11 -70 -10 -5 -15 -15 -20 -44 -20 -42 0 -76 -25 -48
-36 8 -3 32 -4 53 -2 31 2 40 9 53 35 19 38 27 41 36 13 3 -11 14 -20 23 -21
69 -3 171 -22 166 -30 -3 -5 4 -9 15 -9 11 0 24 6 28 14 9 16 93 33 93 18 0
-5 -11 -17 -25 -26 -14 -9 -23 -21 -20 -25 10 -17 -21 -29 -80 -32 -49 -3 -59
-1 -57 11 2 8 0 12 -4 8 -4 -4 -13 -3 -21 3 -10 9 -18 8 -32 -5 -17 -15 -39
-17 -173 -14 -120 3 -160 7 -179 19 -18 12 -31 14 -49 7 -20 -8 -28 -5 -39 11
-7 12 -20 21 -28 21 -8 0 -11 5 -8 10 3 6 2 10 -4 10 -5 0 -12 -13 -16 -30 -4
-17 -13 -30 -21 -30 -9 0 -12 5 -9 10 15 24 -8 27 -50 9 -38 -17 -57 -19 -115
-13 -39 3 -70 10 -70 15 0 4 -20 20 -44 34 -40 23 -46 31 -52 71 -12 85 18
144 66 129 10 -3 21 -1 25 5 4 6 -5 10 -20 10 -24 0 -26 3 -21 26 7 28 -16 64
-41 64 -7 0 -13 9 -13 20 0 18 7 20 75 20 62 0 73 2 69 15 -5 12 -25 15 -90
15 -73 0 -85 -3 -96 -20 -11 -17 -24 -20 -90 -20 -51 0 -78 4 -78 11 0 8 -4 8
-13 1 -9 -8 -11 -1 -8 34 l3 44 -117 0 c-92 0 -120 -3 -132 -16 -12 -11 -13
-18 -4 -27 6 -6 11 -19 11 -29 0 -14 -7 -18 -30 -16 -33 2 -46 23 -29 44 7 9
7 14 1 14 -5 0 -12 9 -15 21 -6 24 26 41 58 32 11 -3 114 -6 229 -6z m876 3
c12 -7 12 -13 4 -27 -12 -19 -64 -31 -64 -14 0 5 -3 16 -6 24 -3 10 2 17 13
20 29 8 37 7 53 -3z m1365 3 c167 4 253 2 261 -5 15 -16 -10 -23 -84 -23 -43
0 -82 -5 -89 -11 -7 -6 -52 -12 -103 -13 -81 -2 -92 0 -96 16 -5 17 -26 18
-355 18 -192 0 -349 3 -349 7 0 15 51 17 380 13 190 -3 386 -4 435 -2z m695
-8 c6 -8 9 -19 5 -25 -3 -5 0 -10 7 -10 11 0 11 -2 0 -9 -8 -5 -11 -17 -7 -33
7 -28 -14 -43 -46 -33 -22 7 -26 50 -6 58 8 4 7 6 -4 6 -11 1 -14 9 -11 29 3
20 10 28 27 30 12 1 28 -5 35 -13z m-3249 -3 c6 -81 6 -82 -15 -87 -12 -3 -50
-6 -86 -7 -50 -2 -69 1 -80 14 -12 12 -38 17 -105 20 -117 4 -118 22 -1 26 72
2 92 6 102 20 10 14 29 18 98 20 47 1 86 -2 87 -6z m3168 3 c-7 -7 -189 -8
-196 -1 -4 3 40 6 97 6 57 0 101 -2 99 -5z m181 -5 c0 -5 -7 -7 -15 -4 -8 4
-15 1 -15 -5 0 -6 8 -11 18 -11 14 0 15 -2 2 -10 -12 -7 -12 -12 -1 -34 11
-20 23 -26 60 -29 30 -2 22 -4 -21 -3 -38 0 -68 4 -68 8 0 4 3 7 8 6 4 -2 8 2
9 7 1 6 -9 9 -23 7 -20 -3 -24 0 -21 19 2 13 9 25 16 27 8 3 6 8 -6 18 -16 12
-14 13 20 14 20 0 37 -4 37 -10z m-2707 -7 c-18 -2 -50 -2 -70 0 -21 2 -6 4
32 4 39 0 55 -2 38 -4z m1447 -28 c-13 -16 -84 -20 -128 -8 -41 10 -3 23 72
23 60 0 67 -2 56 -15z m274 6 c3 -5 -1 -14 -9 -21 -8 -7 -15 -10 -15 -7 0 3
-3 12 -6 21 -7 17 20 23 30 7z m3494 -66 c4 -5 19 -28 32 -51 33 -55 81 -94
126 -101 l37 -6 -19 26 c-10 15 -34 32 -52 38 -25 8 -33 16 -29 29 3 12 -5 22
-29 33 -18 9 -38 25 -44 37 -10 19 -9 20 17 14 38 -9 131 -54 144 -71 9 -9 8
-17 -1 -28 -8 -9 -8 -15 -2 -15 6 0 17 -3 25 -6 12 -4 14 0 10 15 -6 24 5 26
42 9 30 -14 32 -24 5 -33 -14 -4 -20 -15 -20 -36 0 -16 3 -29 6 -29 11 0 44
42 44 57 0 16 5 16 33 2 25 -14 40 -26 78 -61 16 -14 42 -29 59 -33 16 -4 30
-11 30 -16 0 -5 8 -9 18 -9 10 0 24 -6 30 -12 7 -7 36 -17 65 -23 45 -9 52
-14 55 -35 4 -26 19 -50 32 -50 4 0 11 11 14 25 5 21 12 25 39 24 17 -1 73 -1
124 1 50 1 96 -1 102 -5 7 -3 20 4 30 16 17 21 26 23 130 23 74 1 112 5 115
13 3 8 16 9 43 2 21 -5 53 -9 72 -9 20 0 39 -7 47 -17 7 -10 17 -19 23 -19 6
-1 12 -2 14 -3 10 -8 128 -4 131 4 3 7 7 7 13 0 12 -14 98 -13 98 2 0 20 14
26 30 13 8 -7 53 -15 100 -18 72 -4 88 -8 100 -26 15 -20 15 -20 29 -1 14 19
15 19 35 1 11 -10 39 -20 61 -22 33 -2 40 0 38 14 -2 12 5 18 26 20 58 7 106
-21 54 -31 -20 -4 -19 -4 5 -6 18 -1 27 4 27 14 0 10 10 15 34 15 47 0 66 -9
66 -31 0 -21 1 -21 75 -23 28 -1 59 -6 69 -11 16 -7 18 -5 13 8 -9 23 27 41
67 32 17 -4 60 -8 96 -9 36 -2 95 -8 131 -14 36 -5 77 -8 92 -5 45 9 97 -6
107 -30 l9 -22 0 22 c1 20 5 21 84 18 45 -2 99 -7 120 -11 28 -5 37 -3 37 7 0
12 2 12 9 0 6 -9 33 -14 85 -16 42 -1 79 -5 83 -8 3 -4 15 -7 26 -7 18 0 67
-42 67 -57 0 -4 -3 -3 -7 0 -3 4 -13 -2 -21 -14 -13 -18 -12 -25 3 -60 22 -49
11 -65 -46 -67 -23 -1 -47 -6 -54 -12 -6 -5 -23 -7 -38 -4 -15 2 -27 0 -27 -6
0 -5 24 -10 55 -10 30 0 55 5 55 10 0 6 11 10 25 10 14 0 25 -5 25 -11 0 -5 5
-7 11 -3 8 5 10 -8 6 -47 -4 -30 -7 -55 -7 -57 0 -2 -12 -2 -27 0 -23 2 -29
-1 -32 -22 -1 -14 -8 -28 -15 -32 -8 -6 -8 -8 2 -8 7 0 21 6 32 12 16 10 22
10 35 -3 12 -12 14 -30 9 -92 -4 -42 -11 -77 -15 -77 -5 0 -9 -11 -9 -24 0
-31 -18 -44 -56 -41 -18 1 -38 -1 -45 -6 -10 -6 -3 -9 21 -10 70 -1 71 -5 43
-89 -15 -46 -22 -88 -19 -107 2 -18 0 -35 -5 -38 -5 -4 -9 -17 -9 -29 0 -35
-27 -81 -47 -81 -12 0 -18 -8 -19 -23 l-1 -23 21 23 21 23 3 -28 c3 -27 -15
-63 -26 -53 -2 3 -13 1 -24 -5 -15 -8 -17 -13 -8 -25 20 -23 4 -64 -24 -64
-52 0 -76 25 -33 33 12 3 1 3 -25 1 -26 -2 -50 1 -53 6 -3 5 -12 7 -20 4 -17
-7 -104 24 -123 43 -12 12 -34 17 -54 14 -5 0 -8 4 -8 9 0 6 -15 10 -32 11
-37 0 -86 17 -55 18 9 1 17 5 17 10 0 5 -24 9 -52 8 -59 -2 -118 27 -99 46 21
21 10 25 -79 29 -51 2 -95 9 -102 16 -7 7 -21 12 -32 12 -23 0 -92 22 -102 33
-8 8 4 9 67 7 26 -1 49 3 52 7 3 5 -12 8 -35 7 -32 -2 -41 2 -45 17 -6 23 -1
23 -48 -1 -43 -22 -70 -25 -80 -10 -3 6 3 10 14 10 12 0 21 5 21 10 0 15 -37
12 -54 -5 -13 -14 -16 -13 -24 2 -10 17 -107 47 -123 37 -6 -3 -16 -1 -23 5
-7 6 -30 14 -51 19 -36 7 -62 31 -33 29 7 0 27 1 43 2 27 1 28 3 11 13 -12 6
-47 9 -92 5 -70 -5 -74 -4 -80 16 -4 19 -13 22 -65 24 -55 2 -119 26 -119 44
0 4 9 11 21 14 28 9 9 29 -29 31 -15 0 -46 2 -69 2 -31 2 -43 6 -43 17 0 8 -9
15 -21 15 -11 0 -17 -4 -14 -10 11 -18 -7 -35 -19 -18 -26 35 -81 40 -101 9
-16 -27 -155 9 -155 39 0 26 -20 6 -26 -25 -5 -30 -10 -35 -33 -35 -15 0 -31
-3 -34 -6 -12 -12 -127 -11 -118 0 5 6 11 24 15 39 6 26 5 28 -21 25 -25 -3
-29 -8 -34 -49 -7 -50 -27 -89 -45 -89 -7 0 -26 14 -44 30 -18 17 -36 30 -41
30 -5 0 -9 9 -9 20 0 12 7 20 17 20 35 0 90 35 102 65 14 38 6 45 -51 36 -26
-4 -52 -5 -59 -1 -19 13 -5 45 21 48 43 6 42 18 -5 41 -25 12 -45 26 -45 30 0
4 21 12 46 19 37 10 52 10 75 0 28 -12 40 -38 19 -38 -14 0 -13 -27 2 -36 6
-4 19 2 28 13 9 11 27 24 41 28 l24 8 -29 12 -29 12 26 7 c31 7 57 46 32 46
-9 0 -25 -5 -36 -11 -15 -7 -28 -6 -52 6 -18 9 -72 21 -122 27 -49 6 -93 16
-96 21 -3 5 -9 -1 -12 -12 -6 -23 7 -29 78 -33 48 -4 52 -20 8 -29 -18 -3 -39
-11 -46 -18 -8 -6 -17 -8 -20 -4 -4 3 -7 1 -7 -5 0 -7 11 -12 25 -12 16 0 23
-4 19 -14 -3 -8 3 -16 16 -19 16 -4 21 -12 18 -29 -4 -27 -50 -37 -74 -17 -13
10 -17 10 -24 -1 -6 -10 -4 -18 8 -24 9 -5 19 -12 22 -16 3 -3 12 -9 21 -12
11 -4 19 -24 24 -54 6 -39 4 -50 -11 -61 -16 -11 -16 -13 -1 -19 24 -9 11 -24
-18 -22 -28 3 -43 28 -17 29 9 0 3 5 -15 10 -23 7 -30 14 -26 27 3 14 -6 23
-36 37 -23 10 -41 21 -41 26 0 4 -3 16 -7 26 -5 15 -2 14 19 -5 14 -13 32 -20
40 -17 22 9 11 45 -13 45 -11 0 -19 7 -19 15 0 8 -6 15 -14 15 -8 0 -16 10
-18 23 -2 16 -13 24 -40 31 -33 8 -37 12 -32 33 5 20 2 23 -22 24 -16 1 -35 1
-42 0 -7 -1 -22 5 -34 13 l-22 15 25 10 c23 9 22 10 -9 10 -24 1 -41 10 -62
33 -16 17 -27 34 -25 36 2 3 28 5 56 6 69 1 76 22 12 32 -26 3 -52 10 -58 13
-5 4 -21 7 -35 7 -15 -1 -29 7 -35 19 -6 11 -32 26 -65 36 -30 9 -56 21 -58
28 -2 6 -16 11 -30 11 -15 0 -40 12 -57 26 l-30 26 32 -4 c52 -7 27 10 -35 23
-31 7 -66 18 -77 25 -11 6 -31 15 -45 19 -22 7 -23 6 -12 -8 16 -18 8 -37 -14
-37 -8 0 -12 -5 -8 -11 3 -6 -7 -4 -24 5 l-29 15 4 168 c2 92 6 196 9 231 l6
64 24 -34 c13 -18 27 -37 32 -43z m-4130 58 c-10 -2 -26 -2 -35 0 -10 3 -2 5
17 5 19 0 27 -2 18 -5z m-3285 -50 c-84 -2 -222 -2 -305 0 -84 1 -16 3 152 3
168 0 236 -2 153 -3z m1819 0 c-18 -2 -45 -2 -60 0 -15 2 0 4 33 4 33 0 45 -2
27 -4z m2866 -10 c-26 -2 -71 -2 -100 0 -29 2 -8 3 47 3 55 0 79 -1 53 -3z
m-2747 -193 c74 0 143 1 154 2 17 3 20 -3 20 -42 1 -64 -3 -70 -30 -60 -13 5
-91 10 -174 11 -169 3 -182 8 -161 58 11 27 34 43 51 35 3 -2 66 -3 140 -4z
m2607 -11 c20 -32 -8 -49 -36 -21 -11 10 -11 16 -2 27 17 20 23 19 38 -6z
m230 14 c-21 -2 -57 -2 -80 0 -24 2 -7 4 37 4 44 0 63 -2 43 -4z m-40 -20
c-16 -2 -40 -2 -55 0 -16 2 -3 4 27 4 30 0 43 -2 28 -4z m3760 0 c-10 -2 -18
-9 -18 -14 0 -5 -18 -9 -39 -9 -22 0 -43 -5 -46 -10 -4 -6 -11 -8 -16 -5 -20
13 -6 22 49 32 60 11 100 14 70 6z m-3843 -14 c8 -12 145 -10 145 3 0 17 198
3 217 -16 4 -3 2 -11 -4 -17 -14 -14 -213 -25 -213 -13 0 6 -37 7 -92 2 -56
-4 -97 -3 -102 2 -6 6 -18 10 -28 10 -10 0 -18 5 -18 10 0 6 9 10 20 10 11 0
20 5 20 10 0 13 47 13 55 -1z m3675 -19 c-8 -5 -26 -9 -40 -9 l-25 1 25 8 c14
4 32 8 40 9 13 1 13 0 0 -9z m-3780 -30 c0 -20 -17 -30 -37 -22 -18 6 -16 23
4 38 21 15 33 9 33 -16z m5238 -78 c2 -7 -5 -12 -15 -12 -21 1 -55 24 -47 32
9 9 57 -7 62 -20z m-2972 -21 c-4 -5 -1 -11 6 -13 6 -2 -27 -10 -73 -17 -46
-7 -95 -19 -107 -28 -20 -12 -29 -13 -55 -2 -18 7 -41 20 -52 29 -21 17 -29
18 -59 5 -16 -7 -16 -9 -2 -17 9 -5 16 -15 16 -22 0 -23 40 -56 69 -56 35 0
45 -20 25 -48 -14 -20 -50 -23 -63 -4 -18 25 -73 51 -123 57 -32 4 -63 13 -69
21 -6 8 -19 14 -28 14 -23 1 -47 21 -53 48 -6 22 -5 22 115 25 67 1 172 2 234
2 61 0 114 3 119 8 11 10 106 9 100 -2z m507 -8 c-7 -2 -21 -2 -30 0 -10 3 -4
5 12 5 17 0 24 -2 18 -5z m-78 -23 c-4 -6 6 -10 22 -10 15 0 34 -4 42 -9 23
-15 -2 -58 -44 -78 l-36 -17 -25 32 c-14 18 -32 32 -40 32 -30 0 -13 29 21 36
19 3 38 10 41 15 3 5 10 9 15 9 6 0 7 -4 4 -10z m3703 -48 c2 -12 8 -22 13
-22 6 0 9 -37 7 -92 -2 -70 0 -92 11 -96 9 -3 10 -7 2 -11 -6 -4 -13 -31 -17
-61 -3 -30 -8 -57 -10 -59 -2 -2 1 -11 8 -18 21 -25 3 -177 -37 -318 -24 -87
-66 -258 -77 -315 -6 -30 -19 -64 -29 -76 -21 -22 -25 -44 -9 -44 14 0 12 -16
-4 -32 -32 -30 -58 -49 -63 -45 -2 3 -7 26 -9 52 -4 34 -2 50 10 58 8 7 31 78
51 162 108 447 125 544 99 569 -19 19 -8 126 12 126 8 0 14 7 14 15 0 8 -6 15
-12 15 -10 0 -13 29 -13 113 l0 114 25 -7 c15 -4 26 -15 28 -28z m-3963 7 c81
-15 171 -62 190 -99 16 -30 20 -72 8 -84 -4 -3 -8 -16 -10 -27 -2 -12 -7 -28
-11 -36 -8 -13 -11 -13 -24 0 -12 12 -23 14 -54 6 -21 -5 -48 -11 -59 -14 -11
-2 -31 -6 -45 -10 -24 -6 -48 -11 -80 -17 -8 -1 -62 6 -119 17 l-104 20 -29
65 c-29 64 -29 64 -11 98 16 31 59 60 71 48 2 -3 12 -1 21 4 10 5 35 11 57 14
21 3 55 10 74 15 48 12 58 12 125 0z m4093 -11 c7 -7 12 -20 12 -30 0 -10 4
-18 9 -18 6 0 6 -12 0 -32 -12 -43 -12 -151 0 -163 6 -6 11 -75 13 -155 2
-114 -1 -159 -15 -210 -21 -76 -37 -147 -68 -299 -9 -46 -18 -65 -31 -69 -22
-5 -24 -22 -3 -22 8 0 15 -5 15 -11 0 -20 -21 -49 -35 -49 -18 0 -20 -47 -3
-52 9 -3 8 -12 -5 -31 -9 -14 -17 -35 -17 -47 0 -15 -6 -20 -27 -20 -50 0 -77
21 -79 60 -1 19 4 45 11 56 8 12 14 30 13 40 0 11 10 52 22 92 12 41 19 76 16
79 -9 10 14 32 28 27 7 -3 23 0 37 6 23 10 23 10 -6 7 -19 -1 -30 3 -29 11 1
6 2 25 3 41 0 16 14 41 32 61 25 25 28 34 18 41 -8 5 -10 9 -5 9 6 0 1 7 -10
15 -19 15 -19 15 5 35 13 11 29 20 37 20 7 0 11 6 8 14 -3 8 -13 12 -25 9 -25
-7 -26 20 -1 45 13 13 16 25 11 39 -4 11 -4 37 1 58 5 20 7 79 5 131 -4 83 -2
94 13 94 14 0 14 2 3 9 -7 5 -11 13 -7 19 3 6 0 12 -6 14 -18 6 -18 168 0 168
6 0 12 5 12 10 0 14 33 13 48 -2z m-3083 -373 c19 -19 35 -39 35 -45 0 -5 7
-10 16 -10 9 0 18 -9 21 -21 4 -14 12 -19 24 -16 16 4 17 2 8 -16 -9 -16 -8
-23 3 -31 8 -6 18 -23 22 -38 3 -16 11 -28 16 -28 6 0 10 -7 10 -15 0 -8 -3
-15 -7 -15 -8 1 -185 242 -191 261 -7 18 9 8 43 -26z m110 -26 c11 -16 1 -19
-13 -3 -7 8 -8 14 -3 14 5 0 13 -5 16 -11z m265 -68 c0 -15 -25 -31 -47 -31
-24 0 -28 7 -15 26 14 21 62 25 62 5z m1715 -443 c34 -15 32 -26 -5 -20 -17 2
-30 10 -30 18 0 17 2 17 35 2z"/>
<path d="M6935 3910 c-29 -32 -8 -43 61 -34 52 6 56 8 34 17 -14 5 -37 15 -51
23 -24 12 -28 11 -44 -6z"/>
<path d="M7100 3920 c0 -5 5 -10 10 -10 6 0 10 5 10 10 0 6 -4 10 -10 10 -5 0
-10 -4 -10 -10z"/>
<path d="M7940 3916 c0 -9 5 -16 10 -16 6 0 10 4 10 9 0 6 -4 13 -10 16 -5 3
-10 -1 -10 -9z"/>
<path d="M6770 3903 l-35 -16 34 -7 c51 -12 78 4 49 28 -9 7 -23 6 -48 -5z"/>
<path d="M7292 3896 c-7 -17 -8 -26 -1 -26 6 0 7 -6 3 -12 -4 -7 1 -5 11 4 14
13 16 22 9 39 -10 21 -10 21 -22 -5z"/>
<path d="M6289 3894 c-16 -19 -4 -30 20 -18 16 7 17 11 6 21 -10 10 -16 9 -26
-3z"/>
<path d="M6494 3897 c-3 -9 -1 -24 4 -33 9 -16 10 -16 21 3 8 16 7 24 -4 33
-12 10 -16 9 -21 -3z"/>
<path d="M6595 3900 c-4 -6 -3 -16 3 -22 6 -6 12 -6 17 2 4 6 3 16 -3 22 -6 6
-12 6 -17 -2z"/>
<path d="M7140 3895 c0 -10 10 -15 30 -15 32 0 40 14 14 24 -27 10 -44 7 -44
-9z"/>
<path d="M6632 3861 c-11 -7 -10 -10 3 -15 9 -3 24 -6 32 -6 9 0 21 -7 27 -15
8 -11 20 -14 44 -9 35 7 35 16 0 21 -12 2 -26 7 -32 12 -18 14 -60 21 -74 12z"/>
<path d="M7430 3860 c-12 -8 -11 -10 8 -10 12 0 22 5 22 10 0 13 -11 13 -30 0z"/>
<path d="M7587 3863 c-15 -15 -7 -43 13 -43 15 0 19 6 18 25 -2 24 -17 33 -31
18z"/>
<path d="M6848 3848 c9 -9 15 -9 24 0 9 9 7 12 -12 12 -19 0 -21 -3 -12 -12z"/>
<path d="M7088 3853 c7 -3 16 -2 19 1 4 3 -2 6 -13 5 -11 0 -14 -3 -6 -6z"/>
<path d="M7193 3827 c5 -15 67 -14 67 0 0 8 -13 12 -35 11 -20 -1 -34 -6 -32
-11z"/>
<path d="M6581 3803 c-26 -10 -91 -81 -79 -85 18 -6 67 21 78 43 6 11 21 19
35 19 32 0 40 16 12 24 -25 7 -27 7 -46 -1z"/>
<path d="M6783 3789 c-5 -16 -13 -20 -42 -18 -50 3 -61 1 -61 -11 0 -5 11 -10
25 -10 14 0 25 -6 25 -13 0 -7 5 -18 11 -24 16 -16 60 13 52 33 -3 7 2 17 11
20 21 8 21 44 0 44 -9 0 -18 -9 -21 -21z"/>
<path d="M7505 3800 c-28 -7 -27 -8 13 -9 27 -1 41 3 37 9 -7 11 -7 11 -50 0z"/>
<path d="M6995 3779 c-22 -4 -62 -8 -88 -8 -34 -1 -47 -5 -44 -13 2 -9 23 -12
68 -10 35 1 89 -2 119 -7 33 -5 59 -6 65 0 5 5 29 9 55 9 60 0 83 15 38 25
-47 11 -166 13 -213 4z"/>
<path d="M7313 3765 c-16 -12 -23 -12 -27 -2 -3 6 -4 1 -3 -12 2 -26 27 -42
27 -18 0 17 43 30 78 23 12 -3 22 -1 22 5 0 5 -6 9 -12 10 -7 0 -24 3 -38 5
-14 2 -35 -3 -47 -11z"/>
<path d="M6040 3729 c0 -11 47 -12 54 -1 3 5 -8 9 -24 10 -17 0 -30 -4 -30 -9z"/>
<path d="M6640 3730 c0 -5 7 -10 15 -10 8 0 15 5 15 10 0 6 -7 10 -15 10 -8 0
-15 -4 -15 -10z"/>
<path d="M6396 3705 c-4 -11 2 -15 26 -15 30 0 31 1 12 15 -24 18 -31 18 -38
0z"/>
<path d="M7191 3706 c-15 -18 -7 -23 34 -18 21 3 34 9 32 15 -5 16 -54 18 -66
3z"/>
<path d="M7387 3713 c-12 -11 -8 -23 8 -23 8 0 15 7 15 15 0 16 -12 20 -23 8z"/>
<path d="M5995 3700 c-3 -5 1 -10 10 -10 9 0 13 5 10 10 -3 6 -8 10 -10 10 -2
0 -7 -4 -10 -10z"/>
<path d="M6690 3701 c0 -18 17 -20 36 -6 18 14 18 14 -8 15 -16 0 -28 -4 -28
-9z"/>
<path d="M6572 3665 c-30 -16 -49 -35 -36 -36 5 -1 27 -3 49 -5 22 -2 41 -8
43 -14 6 -16 42 -12 42 5 0 10 10 15 27 15 39 0 24 8 -27 14 -24 3 -48 12 -52
21 -10 17 -15 18 -46 0z"/>
<path d="M7095 3670 c-4 -6 3 -10 14 -10 25 0 27 6 6 13 -8 4 -17 2 -20 -3z"/>
<path d="M7545 3670 c-3 -5 -1 -10 4 -10 6 0 11 5 11 10 0 6 -2 10 -4 10 -3 0
-8 -4 -11 -10z"/>
<path d="M7140 3658 c0 -7 -3 -23 -6 -35 -5 -19 -2 -23 15 -23 11 0 21 6 21
14 0 8 4 16 9 18 5 2 -2 11 -15 21 -17 13 -24 14 -24 5z"/>
<path d="M7508 3663 c7 -3 16 -2 19 1 4 3 -2 6 -13 5 -11 0 -14 -3 -6 -6z"/>
<path d="M7324 3645 c-18 -13 -16 -14 25 -15 37 0 42 2 31 15 -16 19 -31 19
-56 0z"/>
<path d="M7427 3619 c4 -12 14 -19 30 -19 21 0 23 3 14 14 -6 8 -20 16 -30 19
-14 3 -17 0 -14 -14z"/>
<path d="M7237 3623 c-14 -13 -6 -23 18 -23 28 0 34 15 9 24 -19 7 -19 7 -27
-1z"/>
<path d="M6435 3610 c-4 -6 5 -10 20 -10 15 0 24 4 20 10 -3 6 -12 10 -20 10
-8 0 -17 -4 -20 -10z"/>
<path d="M7670 3611 c0 -14 14 -16 75 -13 30 2 53 8 49 13 -7 12 -124 12 -124
0z"/>
<path d="M3755 3830 c-66 -3 -115 -7 -110 -9 22 -7 505 -8 505 -1 0 4 -8 10
-17 12 -27 6 -244 6 -378 -2z"/>
<path d="M4564 3825 c-16 -13 -17 -16 -4 -25 26 -17 42 -12 35 11 -6 18 -4 20
14 14 12 -4 21 -2 21 4 0 16 -43 13 -66 -4z"/>
<path d="M3598 3823 c6 -2 18 -2 25 0 6 3 1 5 -13 5 -14 0 -19 -2 -12 -5z"/>
<path d="M4665 3810 c-6 -10 5 -16 39 -22 11 -2 19 -7 18 -13 -3 -15 -49 -25
-122 -26 -35 -1 -74 -5 -86 -9 -13 -5 -26 -4 -32 2 -18 18 -32 0 -22 -27 7
-20 6 -25 -5 -25 -9 0 -15 10 -15 25 0 26 -14 33 -26 14 -4 -8 -9 -7 -15 2 -8
14 -75 17 -384 17 -223 0 -278 -3 -283 -17 -5 -15 -29 -14 -34 1 -3 8 -24 11
-63 9 -66 -3 -84 -9 -64 -22 11 -7 9 -9 -6 -10 -11 -1 -24 -1 -28 0 -5 1 -6
-3 -2 -9 3 -6 11 -8 16 -5 5 4 9 1 9 -5 0 -13 48 -32 61 -24 20 12 129 10 140
-2 6 -7 16 -11 24 -8 7 3 16 0 20 -5 3 -6 12 -8 18 -4 7 4 61 7 121 8 94 0
110 -2 121 -18 13 -18 14 -18 25 3 9 16 14 19 25 10 9 -8 15 -8 20 0 9 14 55
13 55 -2 0 -9 2 -10 8 -2 4 6 17 14 30 18 16 6 22 3 22 -8 0 -9 7 -16 15 -16
17 0 19 9 5 30 -17 27 41 35 75 10 18 -14 287 -8 315 7 14 7 30 13 35 13 6 0
21 9 33 20 21 18 23 23 12 54 -11 33 -26 46 -55 46 -8 0 -17 -5 -20 -10z"/>
<path d="M3133 3728 c2 -7 7 -13 12 -13 5 0 10 6 13 13 2 6 -4 12 -13 12 -9 0
-15 -6 -12 -12z"/>
<path d="M3450 3725 c0 -9 6 -12 15 -9 8 4 15 10 15 15 0 5 -7 9 -15 9 -8 0
-15 -7 -15 -15z"/>
<path d="M3175 3720 c3 -5 10 -10 16 -10 5 0 9 5 9 10 0 6 -7 10 -16 10 -8 0
-12 -4 -9 -10z"/>
<path d="M3420 3716 c0 -8 5 -18 10 -21 6 -3 10 1 10 9 0 8 -4 18 -10 21 -5 3
-10 -1 -10 -9z"/>
<path d="M3275 3699 c-22 -5 -24 -7 -8 -8 32 -2 54 -12 47 -22 -3 -5 -1 -9 4
-9 8 0 22 22 22 35 0 8 -38 10 -65 4z"/>
<path d="M3490 3671 c0 -12 5 -21 10 -21 6 0 10 6 10 14 0 8 -4 18 -10 21 -5
3 -10 -3 -10 -14z"/>
<path d="M4765 3681 c-10 -17 12 -21 25 -6 10 12 10 15 -3 15 -9 0 -18 -4 -22
-9z"/>
<path d="M4725 3650 c3 -5 13 -10 21 -10 8 0 14 5 14 10 0 6 -9 10 -21 10 -11
0 -17 -4 -14 -10z"/>
<path d="M4978 3623 c7 -3 16 -2 19 1 4 3 -2 6 -13 5 -11 0 -14 -3 -6 -6z"/>
<path d="M3385 3611 c-10 -17 12 -21 25 -6 10 12 10 15 -3 15 -9 0 -18 -4 -22
-9z"/>
<path d="M3320 3599 c0 -5 5 -7 10 -4 6 3 10 8 10 11 0 2 -4 4 -10 4 -5 0 -10
-5 -10 -11z"/>
<path d="M4535 3593 c-34 -5 -45 -18 -45 -50 0 -36 32 -25 38 12 5 28 7 29 40
13 26 -13 30 -13 41 1 10 13 11 10 7 -16 -3 -18 -1 -33 4 -33 6 0 10 5 10 11
0 8 4 8 14 0 8 -7 27 -11 43 -9 23 2 29 8 31 36 4 36 -16 45 -25 11 -6 -20 -7
-21 -19 -5 -11 16 -74 37 -99 34 -5 0 -23 -3 -40 -5z"/>
<path d="M4304 3575 c-5 -12 0 -23 17 -36 29 -23 39 -24 39 -4 0 11 12 15 51
15 43 0 50 3 45 16 -3 9 -6 18 -6 20 0 2 -22 4 -49 4 -37 0 -50 -4 -56 -17 -6
-17 -7 -17 -20 1 -14 18 -15 18 -21 1z"/>
<path d="M4778 3583 c7 -3 16 -2 19 1 4 3 -2 6 -13 5 -11 0 -14 -3 -6 -6z"/>
<path d="M5170 3580 c0 -6 -10 -15 -22 -20 -17 -6 -18 -9 -6 -9 9 -1 24 6 32
15 19 18 20 24 6 24 -5 0 -10 -5 -10 -10z"/>
<path d="M3536 3555 c-3 -8 -1 -15 4 -15 6 0 10 7 10 15 0 8 -2 15 -4 15 -2 0
-6 -7 -10 -15z"/>
<path d="M5031 3544 c0 -11 3 -14 6 -6 3 7 2 16 -1 19 -3 4 -6 -2 -5 -13z"/>
<path d="M4748 3534 c-9 -8 3 -44 13 -38 11 7 12 44 1 44 -5 0 -11 -3 -14 -6z"/>
<path d="M3570 3477 c0 -12 4 -17 8 -12 4 6 11 13 15 16 4 4 1 9 -8 12 -11 5
-15 0 -15 -16z"/>
<path d="M8245 3800 c3 -5 10 -10 16 -10 5 0 9 5 9 10 0 6 -7 10 -16 10 -8 0
-12 -4 -9 -10z"/>
<path d="M8290 3720 c0 -5 -7 -10 -15 -10 -8 0 -15 -4 -15 -10 0 -15 47 -12
53 4 6 15 -1 26 -15 26 -4 0 -8 -4 -8 -10z"/>
<path d="M8335 3648 c-18 -17 -41 -28 -57 -28 -46 0 -30 -31 23 -43 14 -4 36
-16 49 -27 13 -11 29 -20 35 -20 7 0 38 -11 69 -25 31 -14 65 -25 76 -25 13 0
20 -7 20 -19 0 -11 5 -23 10 -26 13 -8 13 -1 -4 39 -12 29 -12 34 4 44 13 8
21 7 30 -1 10 -9 11 -9 6 1 -9 15 6 16 22 0 9 -9 12 -9 12 -1 0 7 -4 15 -10
18 -5 3 -10 15 -10 26 0 25 -16 24 -23 -2 -5 -17 -9 -19 -26 -10 -11 7 -25 20
-31 31 -15 28 -30 25 -30 -6 0 -23 -3 -25 -32 -22 -30 3 -33 6 -36 42 -2 22
-11 46 -20 53 -38 30 -47 30 -77 1z"/>
<path d="M8557 3652 c-9 -10 -17 -25 -17 -33 0 -12 2 -12 9 0 5 7 13 11 18 8
5 -3 15 -2 23 3 13 8 13 11 -1 25 -14 14 -17 14 -32 -3z"/>
<path d="M8685 3596 c29 -19 41 -22 47 -13 13 20 9 27 -14 25 -13 -1 -34 2
-48 6 -17 5 -13 -1 15 -18z"/>
<path d="M9535 3560 c28 -12 57 -12 50 0 -3 6 -21 10 -38 9 -27 0 -29 -2 -12
-9z"/>
<path d="M9440 3522 c0 -10 3 -22 8 -26 4 -4 7 -13 7 -19 0 -22 175 -41 194
-21 9 9 -21 22 -39 17 -9 -3 -35 5 -56 16 -21 12 -46 21 -55 21 -9 0 -19 7
-23 15 -8 21 -36 19 -36 -3z"/>
<path d="M8660 3510 c8 -5 20 -10 25 -10 6 0 3 5 -5 10 -8 5 -19 10 -25 10 -5
0 -3 -5 5 -10z"/>
<path d="M8781 3503 c0 -12 -4 -30 -7 -40 -5 -17 -5 -17 6 0 6 10 9 28 7 40
-4 22 -4 22 -6 0z"/>
<path d="M9926 3497 c3 -10 9 -15 12 -12 3 3 0 11 -7 18 -10 9 -11 8 -5 -6z"/>
<path d="M9080 3493 c0 -7 -9 -13 -20 -13 -11 0 -20 -4 -20 -10 0 -5 14 -10
30 -10 32 0 36 6 20 30 -6 10 -10 11 -10 3z"/>
<path d="M8850 3482 c0 -8 43 -32 57 -32 3 0 -4 9 -17 20 -24 21 -40 26 -40
12z"/>
<path d="M9300 3486 c0 -2 7 -7 16 -10 8 -3 12 -2 9 4 -6 10 -25 14 -25 6z"/>
<path d="M10117 3459 c-7 -26 21 -38 38 -16 7 10 18 17 24 17 7 0 9 5 6 10 -3
6 -19 10 -34 10 -21 0 -30 -6 -34 -21z"/>
<path d="M9416 3451 c-6 -9 3 -21 16 -21 4 0 8 7 8 15 0 16 -16 20 -24 6z"/>
<path d="M9685 3450 c3 -5 8 -10 11 -10 2 0 4 5 4 10 0 6 -5 10 -11 10 -5 0
-7 -4 -4 -10z"/>
<path d="M10010 3456 c0 -2 7 -6 15 -10 8 -3 15 -1 15 4 0 6 -7 10 -15 10 -8
0 -15 -2 -15 -4z"/>
<path d="M8925 3440 c3 -5 8 -10 11 -10 2 0 4 5 4 10 0 6 -5 10 -11 10 -5 0
-7 -4 -4 -10z"/>
<path d="M8585 3430 c3 -5 8 -10 11 -10 2 0 4 5 4 10 0 6 -5 10 -11 10 -5 0
-7 -4 -4 -10z"/>
<path d="M8622 3431 c-10 -6 -4 -12 20 -24 51 -24 147 -40 167 -27 16 10 2 19
-33 22 -14 1 -26 6 -26 10 0 4 -16 4 -34 1 -25 -4 -40 -1 -51 11 -19 18 -25
19 -43 7z"/>
<path d="M9875 3430 c4 -6 11 -8 16 -5 14 9 11 15 -7 15 -8 0 -12 -5 -9 -10z"/>
<path d="M10910 3430 c0 -5 7 -10 15 -10 8 0 15 5 15 10 0 6 -7 10 -15 10 -8
0 -15 -4 -15 -10z"/>
<path d="M9715 3420 c3 -5 11 -10 16 -10 6 0 7 5 4 10 -3 6 -11 10 -16 10 -6
0 -7 -4 -4 -10z"/>
<path d="M11205 3410 c-19 -7 -19 -8 5 -18 30 -11 41 -7 33 13 -6 17 -9 17
-38 5z"/>
<path d="M10294 3383 c2 -10 12 -19 24 -21 16 -3 19 1 15 17 -7 26 -42 29 -39
4z"/>
<path d="M11320 3390 c0 -5 6 -10 14 -10 8 0 18 5 21 10 3 6 -3 10 -14 10 -12
0 -21 -4 -21 -10z"/>
<path d="M8844 3361 c12 -23 20 -27 41 -24 18 4 25 12 25 29 0 21 -5 24 -40
24 l-41 0 15 -29z"/>
<path d="M9010 3379 c-13 -8 -12 -11 4 -24 11 -8 33 -15 48 -15 16 0 39 -6 51
-14 22 -15 77 -11 77 4 0 5 -14 12 -32 15 -17 4 -38 14 -46 21 -7 8 -21 14
-30 15 -9 0 -26 2 -37 4 -11 2 -27 0 -35 -6z"/>
<path d="M9488 3376 c-9 -8 -27 -18 -42 -22 -14 -3 -26 -10 -26 -15 0 -12 98
-11 102 1 2 6 46 11 103 11 119 1 135 -1 135 -17 0 -6 9 -14 20 -17 11 -3 20
-12 20 -21 0 -22 23 -20 37 3 10 16 8 22 -13 40 -13 11 -32 21 -42 21 -10 0
-22 3 -25 6 -4 4 -35 9 -69 11 -35 3 -90 7 -124 10 -46 3 -65 1 -76 -11z"/>
<path d="M11021 3364 c0 -11 3 -14 6 -6 3 7 2 16 -1 19 -3 4 -6 -2 -5 -13z"/>
<path d="M8975 3350 c-3 -5 1 -13 10 -16 22 -9 29 1 11 15 -10 8 -16 9 -21 1z"/>
<path d="M9860 3350 c0 -12 103 -32 123 -24 20 7 22 20 5 30 -7 4 -8 3 -4 -4
7 -11 -45 -9 -106 3 -10 2 -18 -1 -18 -5z"/>
<path d="M10617 3320 c-4 -15 0 -20 14 -20 17 0 18 3 9 20 -6 11 -12 20 -14
20 -2 0 -6 -9 -9 -20z"/>
<path d="M10050 3310 c0 -26 34 -44 49 -26 9 10 6 17 -13 30 -32 21 -36 20
-36 -4z"/>
<path d="M10174 3319 c-3 -5 -2 -9 3 -10 4 0 -3 -5 -17 -11 -23 -10 -23 -11
-5 -16 11 -2 26 -9 33 -14 8 -7 12 -7 12 1 0 8 14 9 43 5 l42 -6 -30 25 c-32
27 -72 40 -81 26z"/>
<path d="M10432 3312 c-19 -17 -19 -19 -3 -29 14 -9 20 -7 30 9 12 19 13 19
32 2 16 -14 22 -15 32 -4 10 10 9 11 -3 5 -13 -7 -13 -6 -2 7 10 13 10 17 -4
22 -29 11 -61 6 -82 -12z"/>
<path d="M10736 3315 c-11 -8 -29 -12 -43 -9 -30 8 -31 -12 0 -22 34 -11 90
-5 109 13 17 15 18 15 18 0 0 -16 34 -24 65 -17 6 1 23 4 39 6 16 2 31 6 34 9
3 2 14 0 24 -6 14 -8 23 -8 31 0 17 17 5 21 -74 26 -41 3 -99 7 -129 10 -40 4
-60 1 -74 -10z"/>
<path d="M11622 3300 c0 -14 2 -19 5 -12 2 6 2 18 0 25 -3 6 -5 1 -5 -13z"/>
<path d="M9200 3298 c1 -39 30 -44 95 -18 l30 13 -25 7 c-42 13 -100 11 -100
-2z"/>
<path d="M10278 3303 c6 -2 18 -2 25 0 6 3 1 5 -13 5 -14 0 -19 -2 -12 -5z"/>
<path d="M11131 3301 c-10 -6 -9 -10 3 -14 8 -3 18 -2 21 3 8 13 -9 20 -24 11z"/>
<path d="M9930 3291 c0 -6 5 -13 10 -16 6 -3 10 1 10 9 0 9 -4 16 -10 16 -5 0
-10 -4 -10 -9z"/>
<path d="M11550 3290 c0 -5 7 -10 15 -10 8 0 15 5 15 10 0 6 -7 10 -15 10 -8
0 -15 -4 -15 -10z"/>
<path d="M10358 3273 c7 -3 16 -2 19 1 4 3 -2 6 -13 5 -11 0 -14 -3 -6 -6z"/>
<path d="M9350 3250 c0 -10 7 -12 35 -12 42 0 56 3 50 12 -3 6 -24 10 -46 10
-21 0 -39 -4 -39 -10z"/>
<path d="M10950 3245 c0 -8 5 -15 10 -15 6 0 10 7 10 15 0 8 -4 15 -10 15 -5
0 -10 -7 -10 -15z"/>
<path d="M8970 3230 c0 -12 7 -20 17 -20 9 0 13 3 10 7 -4 3 -2 12 4 20 9 10
7 13 -10 13 -14 0 -21 -6 -21 -20z"/>
<path d="M10418 3233 c7 -3 16 -2 19 1 4 3 -2 6 -13 5 -11 0 -14 -3 -6 -6z"/>
<path d="M9030 3219 c0 -7 25 -19 42 -19 5 0 8 5 6 12 -4 12 -48 19 -48 7z"/>
<path d="M9485 3220 c-38 -7 -21 -18 37 -24 46 -4 87 8 58 18 -30 9 -66 12
-95 6z"/>
<path d="M9850 3206 c0 -15 18 -31 26 -23 7 7 -7 37 -17 37 -5 0 -9 -6 -9 -14z"/>
<path d="M11460 3200 c0 -11 4 -20 9 -20 5 0 11 9 14 20 3 13 0 20 -9 20 -8 0
-14 -9 -14 -20z"/>
<path d="M10134 3195 c-4 -8 -10 -12 -15 -9 -15 9 -169 10 -169 2 0 -11 36
-18 109 -22 38 -2 67 -8 69 -14 5 -17 22 -14 22 4 0 8 4 13 9 9 6 -3 15 3 20
14 8 15 7 20 -5 25 -24 9 -34 7 -40 -9z"/>
<path d="M11262 3198 c5 -13 58 -19 106 -11 51 8 18 23 -51 23 -41 0 -57 -4
-55 -12z"/>
<path d="M10226 3191 c-12 -19 6 -36 39 -37 19 0 35 3 35 8 0 4 -7 8 -16 8 -8
0 -13 4 -10 9 3 5 -1 12 -10 15 -22 8 -32 8 -38 -3z"/>
<path d="M9623 3183 c-18 -2 -33 -9 -33 -14 0 -5 12 -7 28 -3 21 4 24 3 12 -6
-11 -8 5 -9 66 -4 76 6 82 5 103 -17 28 -31 28 -66 -1 -72 -19 -3 -17 -5 6 -6
16 0 38 -8 48 -17 17 -16 17 -18 -8 -30 -15 -8 -37 -16 -50 -18 -13 -3 -28 -7
-34 -11 -5 -3 -10 3 -10 14 0 12 -4 21 -10 21 -5 0 -10 -7 -10 -15 0 -12 -14
-15 -63 -15 -36 0 -68 5 -75 12 -9 9 -12 9 -12 -1 0 -7 -6 -9 -12 -6 -7 4 -2
-3 12 -15 13 -12 25 -28 26 -37 4 -24 13 -28 30 -11 15 15 21 15 69 -2 l53
-18 7 21 c5 12 9 29 9 37 1 8 8 13 16 11 21 -5 113 -1 120 5 3 3 -3 11 -13 18
-27 20 -22 37 8 26 17 -7 32 -5 52 5 26 14 29 13 44 -7 19 -25 39 -16 39 16 0
21 -4 23 -34 19 -21 -3 -39 1 -47 9 -10 12 -19 12 -48 2 -19 -6 -42 -10 -50
-9 -9 2 -19 4 -23 4 -4 1 -4 23 -1 50 6 50 6 50 -28 59 -36 9 -133 12 -186 5z"/>
<path d="M10633 3173 c-13 -3 -23 -9 -23 -15 0 -5 -20 -8 -47 -6 -42 3 -48 1
-48 -17 0 -22 30 -32 85 -27 32 3 37 7 32 24 -5 19 -1 20 69 17 42 -2 74 0 74
5 0 6 -16 11 -35 13 -19 1 -46 4 -60 6 -14 2 -35 2 -47 0z"/>
<path d="M8932 3161 c-10 -6 -10 -10 3 -21 18 -15 42 0 31 19 -8 13 -16 14
-34 2z"/>
<path d="M9920 3160 c0 -5 5 -10 10 -10 6 0 10 5 10 10 0 6 -4 10 -10 10 -5 0
-10 -4 -10 -10z"/>
<path d="M11125 3161 c-6 -11 9 -23 19 -14 9 9 7 23 -3 23 -6 0 -12 -4 -16 -9z"/>
<path d="M10296 3124 c-5 -12 -2 -15 10 -10 8 3 18 6 20 6 2 0 4 5 4 10 0 16
-27 11 -34 -6z"/>
<path d="M10803 3126 c9 -7 17 -20 17 -28 0 -11 7 -14 25 -10 14 2 25 11 25
18 0 8 1 17 3 21 1 4 -18 8 -43 10 -39 2 -43 0 -27 -11z"/>
<path d="M10055 3120 c-3 -5 3 -10 14 -10 12 0 21 5 21 10 0 6 -6 10 -14 10
-8 0 -18 -4 -21 -10z"/>
<path d="M10367 3123 c-13 -12 -7 -23 13 -23 11 0 20 7 20 15 0 15 -21 21 -33
8z"/>
<path d="M10967 3124 c-3 -3 -3 -12 0 -20 4 -11 9 -12 19 -3 8 6 11 15 8 20
-6 10 -18 12 -27 3z"/>
<path d="M11340 3120 l-35 -7 43 -2 c27 0 41 3 37 9 -3 6 -7 9 -8 9 -1 -1 -18
-5 -37 -9z"/>
<path d="M8990 3106 c0 -2 11 -6 25 -8 14 -3 25 -1 25 3 0 5 -11 9 -25 9 -14
0 -25 -2 -25 -4z"/>
<path d="M11258 3093 c7 -3 16 -2 19 1 4 3 -2 6 -13 5 -11 0 -14 -3 -6 -6z"/>
<path d="M9044 3075 c-4 -8 -3 -22 0 -31 5 -13 9 -14 21 -4 8 7 15 21 15 31 0
23 -28 25 -36 4z"/>
<path d="M10755 3080 c-3 -5 3 -10 15 -10 12 0 18 5 15 10 -3 6 -10 10 -15 10
-5 0 -12 -4 -15 -10z"/>
<path d="M11120 3080 c0 -5 18 -10 41 -10 24 0 38 4 34 10 -3 6 -22 10 -41 10
-19 0 -34 -4 -34 -10z"/>
<path d="M11520 3080 c0 -6 7 -10 15 -10 8 0 15 2 15 4 0 2 -7 6 -15 10 -8 3
-15 1 -15 -4z"/>
<path d="M9440 3055 c-7 -8 -11 -15 -9 -16 2 0 24 0 49 -1 122 -1 148 8 47 16
-31 2 -61 7 -66 10 -5 3 -14 -1 -21 -9z"/>
<path d="M10171 3028 c-12 -34 14 -69 50 -66 34 3 29 14 -10 23 -28 6 -33 18
-18 42 4 6 3 14 -3 18 -6 3 -14 -4 -19 -17z"/>
<path d="M10497 3013 c-13 -30 1 -44 19 -18 8 10 26 19 41 20 14 0 28 5 30 10
2 6 -14 10 -38 10 -33 0 -44 -4 -52 -22z"/>
<path d="M9370 3023 c-34 -6 -47 -21 -27 -29 9 -3 17 -15 17 -25 0 -12 7 -19
20 -19 11 0 20 -3 20 -7 0 -5 27 -9 61 -10 49 -1 60 1 55 13 -3 9 1 14 11 14
13 0 14 3 5 12 -10 10 -17 10 -32 0 -28 -17 -38 -15 -70 12 -21 17 -26 26 -17
35 12 12 5 12 -43 4z"/>
<path d="M10110 3009 c0 -5 5 -7 10 -4 6 3 10 8 10 11 0 2 -4 4 -10 4 -5 0
-10 -5 -10 -11z"/>
<path d="M10291 3004 c0 -11 3 -14 6 -6 3 7 2 16 -1 19 -3 4 -6 -2 -5 -13z"/>
<path d="M10994 3012 c-13 -8 -15 -42 -2 -42 11 0 21 26 16 39 -1 6 -8 7 -14
3z"/>
<path d="M11051 3006 c-14 -17 -1 -28 19 -16 11 7 12 12 4 20 -8 8 -14 7 -23
-4z"/>
<path d="M11297 3013 c-4 -3 -7 -11 -7 -17 0 -6 5 -5 12 2 6 6 9 14 7 17 -3 3
-9 2 -12 -2z"/>
<path d="M11370 3011 l-25 -7 28 -6 c19 -4 27 -1 27 8 0 8 -1 14 -2 13 -2 -1
-14 -4 -28 -8z"/>
<path d="M11475 3010 c-8 -13 -1 -24 14 -19 6 3 7 10 2 18 -6 10 -10 10 -16 1z"/>
<path d="M10612 2991 c-11 -7 -10 -10 3 -15 20 -7 38 1 30 15 -7 11 -16 11
-33 0z"/>
<path d="M11165 2990 c3 -5 10 -10 16 -10 5 0 9 5 9 10 0 6 -7 10 -16 10 -8 0
-12 -4 -9 -10z"/>
<path d="M10670 2975 c10 -12 16 -13 26 -4 20 16 18 19 -12 19 -22 0 -25 -2
-14 -15z"/>
<path d="M10763 2982 c-8 -5 -3 -12 16 -23 25 -15 28 -14 44 8 18 23 18 23
-15 23 -18 0 -38 -4 -45 -8z"/>
<path d="M11667 2971 c-17 -18 -17 -19 8 -23 14 -3 25 -2 25 3 0 4 3 14 6 23
8 22 -16 20 -39 -3z"/>
<path d="M10358 2971 c-10 -3 -19 -10 -20 -16 -2 -5 -12 -9 -23 -10 -11 0 -20
-6 -20 -14 0 -23 23 -24 42 -2 9 12 25 21 35 21 10 0 18 4 18 9 0 15 -13 19
-32 12z"/>
<path d="M11603 2943 c-28 -5 -28 -11 -4 -42 14 -18 22 -21 36 -14 10 6 13 13
7 17 -5 3 -8 15 -5 26 3 11 1 19 -3 19 -5 -1 -19 -4 -31 -6z"/>
<path d="M10387 2934 c-9 -9 4 -35 14 -28 5 3 9 12 9 20 0 14 -12 19 -23 8z"/>
<path d="M10560 2927 l-25 -10 23 -5 c26 -4 36 1 31 16 -3 6 -14 5 -29 -1z"/>
<path d="M10080 2910 c0 -5 5 -10 10 -10 6 0 10 5 10 10 0 6 -4 10 -10 10 -5
0 -10 -4 -10 -10z"/>
<path d="M10700 2910 c0 -5 5 -10 11 -10 5 0 7 5 4 10 -3 6 -8 10 -11 10 -2 0
-4 -4 -4 -10z"/>
<path d="M10930 2900 c0 -5 5 -10 10 -10 6 0 10 5 10 10 0 6 -4 10 -10 10 -5
0 -10 -4 -10 -10z"/>
<path d="M10470 2890 c0 -5 5 -10 10 -10 6 0 10 5 10 10 0 6 -4 10 -10 10 -5
0 -10 -4 -10 -10z"/>
<path d="M10631 2874 c0 -11 3 -14 6 -6 3 7 2 16 -1 19 -3 4 -6 -2 -5 -13z"/>
<path d="M11203 2865 c-19 -21 -16 -32 10 -29 12 1 35 3 50 3 33 1 27 21 -7
21 -12 0 -26 4 -31 9 -6 6 -15 4 -22 -4z"/>
<path d="M11398 2873 c7 -3 16 -2 19 1 4 3 -2 6 -13 5 -11 0 -14 -3 -6 -6z"/>
<path d="M11145 2850 c-3 -5 -1 -10 4 -10 6 0 11 5 11 10 0 6 -2 10 -4 10 -3
0 -8 -4 -11 -10z"/>
<path d="M11004 2825 c-4 -8 -13 -15 -21 -15 -8 0 -11 -4 -8 -10 10 -16 51
-11 69 9 15 17 15 19 1 25 -25 9 -35 7 -41 -9z"/>
<path d="M10437 2817 c-3 -8 -21 -17 -39 -20 -21 -2 -12 -4 25 -5 43 -2 57 -6
57 -17 0 -28 17 -15 24 17 8 38 3 44 -17 23 -20 -20 -30 -19 -38 2 -5 15 -6
15 -12 0z"/>
<path d="M10055 2810 c-4 -6 5 -10 20 -10 15 0 24 4 20 10 -3 6 -12 10 -20 10
-8 0 -17 -4 -20 -10z"/>
<path d="M10124 2811 c-6 -7 89 -30 98 -24 5 2 8 8 8 13 0 8 -98 18 -106 11z"/>
<path d="M10680 2816 c0 -9 30 -14 35 -6 4 6 -3 10 -14 10 -12 0 -21 -2 -21
-4z"/>
<path d="M11550 2775 c0 -8 5 -15 10 -15 6 0 10 7 10 15 0 8 -4 15 -10 15 -5
0 -10 -7 -10 -15z"/>
<path d="M11275 2770 c-3 -5 -1 -10 4 -10 6 0 11 5 11 10 0 6 -2 10 -4 10 -3
0 -8 -4 -11 -10z"/>
<path d="M10877 2763 c-4 -3 -7 -11 -7 -17 0 -6 5 -5 12 2 6 6 9 14 7 17 -3 3
-9 2 -12 -2z"/>
<path d="M10930 2750 c0 -5 11 -11 25 -11 14 -1 30 -2 37 -3 6 -1 13 5 16 12
2 8 -9 12 -37 12 -23 0 -41 -4 -41 -10z"/>
<path d="M10400 2710 c0 -5 7 -10 15 -10 8 0 15 5 15 10 0 6 -7 10 -15 10 -8
0 -15 -4 -15 -10z"/>
<path d="M11475 2700 c3 -5 17 -10 31 -10 14 0 22 4 19 10 -3 6 -17 10 -31 10
-14 0 -22 -4 -19 -10z"/>
<path d="M11070 2690 c-12 -8 -10 -10 8 -10 13 0 20 4 17 10 -7 12 -6 12 -25
0z"/>
<path d="M11360 2620 c0 -5 5 -10 10 -10 6 0 10 5 10 10 0 6 -4 10 -10 10 -5
0 -10 -4 -10 -10z"/>
<path d="M11116 2594 c-4 -10 -1 -14 6 -12 15 5 23 28 10 28 -5 0 -13 -7 -16
-16z"/>
<path d="M11565 2560 c-3 -5 1 -10 10 -10 9 0 13 5 10 10 -3 6 -8 10 -10 10
-2 0 -7 -4 -10 -10z"/>
<path d="M11116 2520 c-11 -3 -15 -9 -10 -12 5 -3 18 -2 28 2 11 3 15 9 10 12
-5 3 -18 2 -28 -2z"/>
<path d="M11370 2512 c0 -4 9 -8 20 -9 11 -1 20 2 20 8 0 5 -9 9 -20 9 -11 0
-20 -4 -20 -8z"/>
<path d="M11890 2775 c-10 -12 -10 -15 4 -15 9 0 16 7 16 15 0 8 -2 15 -4 15
-2 0 -9 -7 -16 -15z"/>
<path d="M11857 2626 c-4 -10 -5 -21 -2 -24 9 -9 17 6 13 25 -3 17 -4 17 -11
-1z"/>
<path d="M11803 2509 c-1 -10 2 -19 8 -19 11 0 12 27 1 34 -4 2 -9 -4 -9 -15z"/>
<path d="M11848 2463 c7 -3 16 -2 19 1 4 3 -2 6 -13 5 -11 0 -14 -3 -6 -6z"/>
</g>
</svg>
