<?xml version="1.0" standalone="no"?>
<!DOCTYPE svg PUBLIC "-//W3C//DTD SVG 20010904//EN"
 "http://www.w3.org/TR/2001/REC-SVG-20010904/DTD/svg10.dtd">
<svg version="1.0" xmlns="http://www.w3.org/2000/svg"
 width="468pt" height="258pt" viewBox="0 0 468 258"
 preserveAspectRatio="xMidYMid meet">
<metadata>
Created by potrace 1.8, written by Peter Selinger 2001-2007
</metadata>
<g transform="translate(0,258) scale(0.036562,-0.036563)"
fill="#000000" stroke="none">
<path d="M5255 4464 c-8 -116 -2 -194 18 -206 6 -4 132 -8 279 -8 261 0 266 0
261 20 -3 11 0 20 5 20 6 0 16 -9 22 -20 8 -15 21 -20 50 -20 l40 0 0 85 c0
88 -14 113 -26 48 -6 -36 -34 -90 -34 -67 0 11 -38 13 -55 3 -21 -13 -64 -19
-70 -9 -3 6 8 23 25 38 27 25 29 30 16 41 -20 17 -53 5 -62 -21 -5 -16 -8 -18
-15 -7 -7 11 -9 11 -9 1 0 -7 -4 -11 -9 -7 -5 3 -12 1 -16 -5 -4 -6 -11 -7
-17 -4 -7 4 -8 2 -4 -4 4 -7 2 -12 -4 -12 -6 0 -9 -4 -5 -9 10 -17 -17 -24
-76 -22 -32 1 -60 -2 -64 -8 -10 -17 -39 -13 -56 7 -19 22 -20 52 -2 52 7 0
13 -4 13 -9 0 -14 32 -18 58 -7 14 6 21 15 17 24 -3 7 -5 20 -5 28 0 8 -10 14
-25 14 -30 0 -33 -15 -5 -30 26 -14 26 -30 -1 -30 -13 0 -23 10 -31 31 -7 19
-15 28 -24 25 -8 -3 -14 -1 -14 5 0 6 -4 7 -10 4 -9 -6 -14 10 -13 42 1 7 -3
10 -8 8 -4 -3 -7 4 -6 15 1 11 7 20 15 20 8 0 10 -5 6 -12 -4 -7 3 -4 16 7 13
11 20 15 17 8 -12 -20 10 -24 46 -10 28 12 37 12 58 1 28 -16 103 -19 94 -4
-10 16 27 11 47 -6 13 -12 21 -14 30 -6 9 7 23 5 48 -7 37 -17 46 -18 70 -8
23 10 71 2 81 -14 6 -10 9 -3 9 21 0 25 3 31 9 20 6 -8 8 -17 5 -21 -5 -8 137
-18 151 -10 6 3 52 4 102 2 78 -2 94 0 99 13 3 9 10 13 16 10 5 -3 4 -11 -3
-20 -9 -12 -5 -14 26 -14 28 0 36 4 32 14 -3 8 2 16 11 18 30 6 152 -3 147
-12 -3 -4 -15 -6 -27 -2 -13 3 -19 1 -15 -5 9 -15 196 -16 213 -2 7 6 19 7 25
3 10 -6 107 -15 159 -14 38 0 99 13 95 20 -2 4 123 6 278 5 168 -1 285 2 288
8 4 5 14 5 27 -2 26 -14 102 -14 102 -1 0 7 7 7 21 0 15 -8 24 -8 34 0 21 18
169 24 221 10 36 -10 50 -10 69 0 13 7 31 9 42 5 31 -13 127 -12 153 2 15 8
26 9 28 3 5 -13 68 -13 93 1 13 7 24 7 32 1 7 -6 53 -10 102 -10 50 -1 92 -1
95 -2 3 0 40 -2 83 -4 71 -4 107 -16 107 -36 0 -16 -171 -31 -327 -28 -140 3
-164 1 -179 -14 -15 -15 -13 -16 25 -15 22 1 41 -1 41 -5 0 -5 16 -8 35 -8 19
0 35 4 35 8 0 4 26 8 58 8 31 0 77 1 102 2 58 2 101 -2 122 -12 9 -4 31 -5 50
-2 47 7 97 -8 138 -43 l35 -30 -43 -1 c-24 0 -56 -7 -72 -15 -18 -9 -31 -11
-35 -5 -10 16 -75 12 -75 -5 0 -18 65 -31 84 -16 7 6 15 9 18 6 2 -3 47 -7 99
-10 106 -5 169 -26 148 -51 -6 -8 -23 -15 -38 -15 l-26 -1 25 -8 c56 -16 70
-23 70 -34 0 -7 10 -12 23 -12 13 1 21 -4 19 -12 -1 -8 2 -11 8 -7 9 5 14 -15
13 -52 0 -7 7 -15 16 -18 19 -6 28 -70 11 -80 -6 -4 -8 -14 -6 -23 16 -50 23
-149 11 -160 -3 -3 -16 0 -29 6 -19 9 -25 8 -30 -4 -8 -20 -27 -17 -33 6 -8
29 -40 25 -47 -5 -4 -14 -12 -25 -19 -24 -25 3 -37 -2 -62 -25 -18 -17 -22
-26 -13 -30 7 -3 -3 -4 -22 -2 -19 3 -44 1 -55 -4 -17 -7 -15 -9 12 -9 31 -1
59 -21 29 -21 -21 0 -20 -16 0 -24 14 -5 16 -16 10 -61 -7 -63 9 -149 33 -175
22 -23 81 -135 81 -154 0 -8 6 -19 13 -23 18 -11 47 -59 47 -78 0 -9 7 -18 15
-21 21 -8 20 -54 -1 -54 -9 0 -18 9 -21 20 -3 11 -9 20 -14 20 -5 0 -9 -9 -9
-20 0 -11 6 -20 13 -20 6 0 29 -36 51 -79 21 -44 45 -82 52 -85 19 -7 16 -86
-3 -86 -7 0 -13 -6 -13 -12 -1 -7 -14 -28 -29 -46 -22 -26 -34 -32 -50 -27
-12 3 -21 14 -21 23 -1 26 -23 47 -50 47 -17 0 -25 5 -25 18 0 10 -7 22 -15
27 -10 7 -11 10 -2 10 23 0 12 18 -17 28 -40 14 -57 -4 -40 -42 7 -14 16 -26
21 -26 4 0 8 -7 8 -15 0 -8 7 -15 15 -15 9 0 18 -6 21 -14 3 -8 18 -16 34 -19
17 -4 31 -15 35 -27 6 -19 12 -20 53 -14 30 4 57 16 75 33 l29 26 -12 -25
c-16 -36 -76 -73 -103 -64 -12 4 -31 7 -42 8 -14 1 -19 7 -17 20 2 10 -1 15
-6 12 -31 -19 -132 42 -132 78 0 9 -5 16 -11 16 -5 0 -17 16 -25 35 -13 32
-34 48 -34 26 0 -10 39 -82 50 -91 3 -3 14 -22 24 -42 10 -21 28 -40 38 -44
18 -5 18 -7 4 -23 -19 -21 -4 -41 29 -41 18 0 22 -6 23 -42 1 -23 3 -42 4 -44
2 -1 15 0 31 3 27 5 38 23 15 23 -14 0 -39 46 -30 55 3 3 34 5 68 5 35 0 66 5
69 10 3 6 14 10 24 10 20 0 58 37 48 46 -3 4 7 31 24 62 16 30 29 62 29 71 1
26 30 -18 30 -45 0 -14 8 -25 20 -29 28 -9 49 -54 40 -86 -12 -41 -49 -77 -87
-84 -20 -3 -46 -13 -58 -21 -12 -8 -24 -12 -27 -9 -2 3 -13 -4 -23 -15 -10
-11 -24 -20 -30 -20 -7 0 -23 -8 -36 -18 -57 -42 -71 -43 -145 -6 -37 19 -70
37 -72 39 -2 2 -10 36 -16 74 -10 60 -10 71 2 71 10 0 8 7 -7 26 -12 15 -21
33 -21 40 0 14 -6 16 -45 18 -17 1 -20 7 -17 42 3 32 -3 50 -32 93 -20 29 -36
55 -36 57 0 7 -42 64 -67 92 -13 14 -23 30 -23 36 0 6 -16 26 -35 45 -19 18
-35 37 -35 43 0 6 -7 8 -14 5 -10 -4 -13 -1 -9 9 3 7 0 14 -6 14 -6 0 -11 8
-11 18 0 23 -43 62 -68 62 -12 0 -24 5 -27 10 -3 6 -25 19 -48 29 -24 11 -50
28 -58 38 -19 21 -34 158 -19 168 7 4 7 12 0 25 -6 12 -7 21 0 25 5 3 6 16 2
28 -13 38 -9 72 8 68 26 -6 93 -5 163 3 47 5 67 4 67 -4 0 -8 6 -8 20 0 11 6
24 9 28 6 4 -2 34 -1 67 4 44 5 -1 8 -165 11 l-225 4 188 2 c163 3 187 5 187
19 0 12 -6 15 -23 10 -33 -8 -342 -10 -355 -2 -10 6 -38 112 -34 128 3 13 -47
20 -92 14 -39 -6 -45 -11 -51 -36 -5 -24 -13 -30 -53 -38 -64 -13 -264 -20
-324 -12 -26 4 -26 5 -11 35 9 16 20 38 24 47 7 14 0 27 -30 57 -45 45 -87 58
-102 30 -5 -11 -16 -19 -24 -19 -8 0 -24 -13 -37 -30 -19 -26 -28 -30 -71 -30
-56 0 -105 -24 -109 -54 -2 -16 -12 -22 -38 -24 -19 -2 -38 -9 -42 -15 -8 -12
-21 31 -22 75 -1 15 -4 28 -8 28 -4 0 -7 12 -7 28 -1 66 -2 71 -16 65 -11 -3
-15 -30 -17 -101 l-3 -97 -155 -5 c-154 -6 -154 -6 80 -9 129 -2 224 -6 210
-10 -22 -6 -26 -14 -31 -66 -27 -260 -38 -331 -64 -405 -7 -19 -20 -64 -30
-100 -9 -36 -21 -74 -25 -85 -4 -11 -18 -56 -30 -100 -12 -44 -26 -84 -31 -89
-5 -6 -9 -16 -9 -23 0 -12 -50 -130 -71 -166 -5 -10 -24 -44 -40 -75 -27 -50
-84 -149 -114 -200 -34 -57 -135 -200 -195 -277 -75 -96 -245 -284 -270 -299
-8 -6 -37 -31 -65 -56 -27 -25 -79 -68 -115 -95 -36 -26 -71 -57 -78 -67 -7
-10 -18 -18 -24 -18 -5 0 -19 -11 -30 -25 -11 -14 -24 -25 -29 -25 -5 0 -24
-14 -42 -31 -48 -45 -60 -55 -79 -62 -43 -15 -33 50 12 75 16 9 30 24 30 33 0
8 5 15 12 15 6 0 8 3 5 7 -4 3 -17 -3 -30 -14 -32 -29 -62 -36 -77 -18 -7 8
-19 15 -26 15 -8 0 -14 8 -14 18 0 10 -13 32 -30 48 -16 16 -30 39 -30 51 0
25 -21 49 -50 58 -11 3 -21 11 -21 16 -1 5 -3 14 -4 19 -1 6 -3 16 -4 24 0 7
-10 16 -21 19 -13 3 -20 14 -20 31 0 16 -9 31 -24 41 -37 24 -59 63 -52 91 4
13 25 36 49 51 23 16 51 36 61 45 11 10 25 18 31 18 6 0 17 9 25 20 8 11 20
20 27 20 7 0 67 54 134 120 66 66 125 120 130 120 5 0 9 6 9 14 0 8 4 16 9 18
14 5 113 122 121 143 4 11 33 54 64 95 31 41 56 80 56 86 0 6 13 29 28 50 16
21 29 41 29 44 0 3 12 28 25 55 14 28 27 55 28 60 1 6 7 17 14 25 6 8 18 29
25 45 13 30 23 50 40 83 29 54 51 111 51 134 0 14 7 38 15 55 8 16 16 42 17
57 1 14 8 26 14 26 16 0 11 73 -5 78 -16 5 -13 39 4 46 9 3 15 0 15 -9 0 -8 4
-15 9 -15 4 0 11 23 14 50 3 28 9 56 14 63 4 6 9 30 10 52 5 49 24 65 77 65
38 -1 40 -2 22 -15 -10 -8 -22 -13 -25 -11 -4 3 -5 -13 -3 -35 4 -35 11 -44
27 -36 3 1 10 -5 15 -13 7 -10 10 3 10 44 0 33 3 56 7 53 3 -4 14 0 23 8 14
13 36 14 150 6 73 -5 136 -14 139 -19 3 -5 15 -12 26 -16 16 -5 23 0 32 24
l11 30 -291 2 c-224 2 -259 3 -152 8 l140 5 -240 9 c-132 5 -326 10 -431 10
-175 1 -192 3 -210 20 -16 17 -16 19 -2 13 10 -3 20 -2 23 3 4 6 92 6 125 0
29 -6 985 1 991 7 5 5 3 37 -3 71 -12 64 -28 67 -28 5 0 -18 -3 -33 -7 -34 -5
0 -19 -2 -33 -4 -24 -3 -125 -6 -165 -5 -11 0 -96 1 -190 1 -100 0 -171 4
-173 9 -5 13 -59 13 -67 0 -8 -13 -82 -13 -90 0 -3 5 -19 7 -34 4 -18 -4 -38
0 -55 11 -15 10 -29 15 -33 11 -3 -3 -1 -6 7 -6 10 0 10 -3 -1 -16 -11 -13
-25 -15 -71 -10 -47 5 -58 3 -58 -9 0 -12 -5 -13 -25 -3 -19 8 -31 8 -52 -1
-23 -11 -28 -10 -37 6 -6 10 -12 29 -13 43 -1 14 -5 37 -9 53 -7 32 11 61 34
52 21 -8 627 -7 659 1 18 5 24 3 19 -5 -9 -14 6 -14 38 0 18 9 29 9 38 1 9 -7
63 -9 157 -6 104 3 147 1 158 -8 12 -9 16 -9 23 2 5 8 19 14 32 15 13 0 25 5
28 10 6 12 -538 19 -1142 15 l-58 0 0 -87 c-1 -93 -14 -129 -44 -117 -16 6
-20 24 -16 79 1 17 3 69 5 116 4 107 12 124 53 116 17 -4 34 -3 36 2 8 13 56
20 62 9 3 -5 11 -5 18 1 16 13 88 10 98 -4 4 -5 8 0 8 12 0 12 -4 24 -10 28
-5 3 -73 6 -152 7 l-143 2 3 -32 c2 -17 -4 -45 -13 -62 -13 -25 -15 -50 -11
-118 3 -48 5 -107 4 -132 -1 -25 -2 -61 -2 -80 l-1 -35 125 -1 c69 -1 224 -3
346 -5 l221 -4 0 -55 c0 -30 -4 -61 -10 -68 -5 -7 -7 -15 -4 -19 4 -3 2 -14
-4 -25 -6 -11 -11 -33 -11 -49 -1 -16 -5 -32 -10 -35 -4 -3 -6 -10 -2 -15 3
-5 1 -15 -4 -22 -6 -7 -12 -24 -14 -37 -2 -14 -7 -31 -12 -38 -4 -7 -5 -16 -2
-19 3 -3 1 -12 -5 -20 -6 -7 -8 -13 -4 -13 4 0 2 -6 -4 -14 -6 -8 -11 -18 -10
-22 1 -5 0 -11 -1 -14 -1 -3 -3 -13 -6 -22 -2 -10 -6 -26 -8 -35 -3 -10 -5
-20 -6 -23 -1 -3 -2 -8 -1 -12 0 -5 -4 -8 -10 -8 -5 0 -7 -4 -4 -10 3 -5 1
-10 -5 -10 -6 0 -8 -4 -5 -10 3 -5 1 -10 -6 -10 -7 0 -9 -3 -6 -6 3 -4 -3 -18
-13 -32 -11 -13 -20 -31 -20 -38 0 -8 -5 -14 -11 -14 -5 0 -7 -4 -4 -10 3 -5
1 -10 -5 -10 -6 0 -8 -4 -5 -10 3 -5 1 -10 -5 -10 -6 0 -8 -4 -5 -10 3 -5 2
-10 -3 -10 -5 0 -17 -20 -28 -45 -10 -25 -22 -45 -27 -45 -4 0 -5 -4 -2 -10 3
-5 1 -10 -4 -10 -6 0 -11 -7 -11 -15 0 -8 -4 -15 -10 -15 -5 0 -10 -7 -10 -15
0 -8 -5 -15 -11 -15 -5 0 -7 -4 -4 -10 3 -5 1 -10 -4 -10 -6 0 -11 -7 -11 -15
0 -8 -4 -15 -10 -15 -5 0 -10 -7 -10 -15 0 -8 -5 -15 -11 -15 -5 0 -7 -5 -4
-10 3 -6 -1 -13 -9 -16 -9 -3 -14 -9 -11 -14 2 -4 -5 -17 -16 -28 -11 -12 -16
-22 -12 -22 4 0 -1 -7 -11 -15 -11 -8 -16 -15 -11 -15 25 0 -260 -268 -420
-396 -99 -79 -186 -149 -193 -155 -7 -6 -11 -17 -8 -24 4 -13 367 -537 424
-614 l25 -34 19 23 c10 12 18 19 18 15 0 -4 9 3 20 16 10 13 19 20 20 15 0 -4
9 2 20 15 10 13 19 20 20 14 0 -5 7 1 16 13 8 12 21 22 28 22 8 0 16 7 20 15
3 8 12 15 20 15 7 0 16 7 20 15 3 8 12 15 20 15 7 0 16 7 20 15 3 8 11 15 18
15 7 0 19 9 26 20 7 12 17 18 22 15 5 -3 14 4 20 15 6 11 15 18 20 15 5 -3 14
4 20 15 6 11 15 18 19 16 9 -6 64 48 56 56 -3 2 24 33 60 67 36 35 65 66 65
70 0 5 28 35 62 67 35 32 62 62 61 65 -1 4 22 30 52 58 30 29 55 56 55 62 0 5
5 9 11 9 5 0 8 4 4 9 -3 6 3 14 12 20 10 6 14 11 10 11 -8 0 30 60 44 70 4 3
8 10 9 15 3 18 34 65 43 65 4 0 6 4 2 9 -3 6 1 13 9 18 8 4 14 10 14 13 -2 12
33 70 43 70 6 0 8 4 5 8 -3 5 3 18 12 28 10 10 20 24 22 29 2 6 8 22 14 38 6
15 14 27 19 27 4 0 5 5 2 10 -3 6 -1 10 6 10 7 0 10 3 6 6 -3 4 1 21 10 38 10
17 16 34 15 39 -1 4 3 7 8 7 6 0 9 3 8 8 -4 13 26 82 35 82 4 0 5 5 2 10 -3 6
-1 10 5 10 6 0 9 3 6 8 -2 4 12 41 31 82 20 41 35 78 35 82 -1 4 3 20 10 35 6
15 12 35 13 43 3 22 36 133 43 145 3 5 7 16 8 25 0 8 9 41 18 73 10 31 20 74
22 95 2 20 6 48 8 62 17 102 20 131 24 215 l2 40 157 -2 c267 -2 707 -14 712
-18 2 -3 6 -49 7 -102 8 -218 10 -245 25 -254 8 -4 50 -30 93 -56 l79 -48 213
-355 c118 -195 222 -364 233 -375 10 -11 48 -35 85 -53 l66 -33 77 32 c43 18
81 37 85 43 4 6 8 7 8 3 0 -4 10 -2 23 5 12 7 24 13 27 13 35 9 60 19 60 24 0
4 6 8 13 8 6 0 28 7 48 15 33 15 37 20 46 76 l9 61 -54 98 c-30 54 -85 152
-122 218 -67 119 -103 186 -175 320 -21 39 -55 100 -76 137 -38 65 -49 108
-28 108 5 0 8 4 4 9 -3 5 -1 12 5 16 6 4 8 11 5 16 -4 5 -1 9 5 9 6 0 9 3 7 8
-3 4 -1 16 3 27 7 18 16 20 86 18 74 -1 118 -14 674 -201 327 -109 600 -199
605 -200 6 -1 354 -116 775 -256 423 -141 789 -257 818 -260 l53 -5 -2 42 c-1
23 1 107 5 187 4 80 9 197 11 260 2 63 7 165 10 225 2 61 7 173 10 250 2 77 7
170 11 206 3 37 2 69 -3 72 -5 3 -53 9 -108 12 -55 4 -113 9 -130 10 -79 7
-184 17 -220 20 -22 2 -67 6 -100 9 -33 3 -87 8 -120 11 -33 3 -82 8 -110 10
-27 3 -77 7 -110 10 -33 2 -80 7 -105 10 -25 3 -76 7 -115 10 -38 3 -92 8
-120 10 -693 64 -700 65 -787 16 -32 -18 -60 -37 -64 -42 -3 -5 -9 -7 -14 -4
-4 3 -23 7 -41 10 -19 2 -44 6 -55 9 -19 4 -41 8 -119 22 -11 1 -33 5 -50 8
-16 3 -56 10 -87 16 -31 6 -70 12 -85 14 -15 2 -39 7 -53 10 -14 3 -43 8 -65
11 -46 7 -89 14 -125 21 -14 3 -50 5 -80 4 l-55 0 -193 175 -193 175 -547 -5
c-1474 -15 -2429 -18 -2436 -6 -5 8 -73 11 -231 11 l-223 0 -7 -106z m75 16
c0 -5 8 -10 19 -10 17 0 45 -45 46 -75 1 -5 7 -9 15 -7 8 1 -1 -11 -20 -28
-19 -17 -35 -38 -35 -47 0 -23 -44 -37 -52 -17 -4 10 1 20 10 26 15 8 15 12 2
37 -13 25 -13 62 0 99 2 6 0 12 -6 12 -6 0 -7 5 -4 10 3 6 10 10 16 10 5 0 9
-4 9 -10z m1310 6 c0 -2 3 -11 6 -20 5 -12 0 -16 -19 -16 -28 0 -42 14 -32 30
6 10 45 15 45 6z m2560 -337 c0 -5 11 -7 25 -3 18 4 32 1 45 -11 12 -11 20
-13 20 -6 0 13 68 5 85 -10 5 -5 26 -9 46 -9 21 0 40 -4 43 -9 3 -4 17 -6 31
-4 13 3 33 2 42 -2 10 -5 34 -9 53 -11 19 -1 67 -8 105 -14 99 -17 268 -10
292 12 29 26 130 32 328 17 99 -7 195 -12 214 -11 18 1 40 -3 47 -9 7 -6 17
-8 22 -5 11 6 334 -18 453 -34 89 -12 165 -20 239 -24 30 -2 63 -7 72 -11 10
-4 39 -5 65 -2 26 2 59 1 73 -4 27 -8 102 -16 268 -26 73 -4 105 -10 109 -19
4 -10 10 -11 24 -3 19 10 23 6 20 -22 -1 -9 5 -19 14 -22 17 -7 21 -62 5 -72
-6 -4 -11 -30 -11 -58 -2 -144 -5 -157 -45 -157 -13 0 -24 -4 -24 -10 0 -5 11
-10 25 -10 31 0 51 -36 41 -74 -5 -19 -13 -26 -31 -26 -14 0 -25 -4 -25 -10 0
-5 8 -10 19 -10 13 0 20 -10 25 -31 7 -37 1 -49 -24 -49 -13 0 -17 -5 -14 -14
3 -8 12 -12 19 -9 10 3 13 -2 10 -19 -3 -12 -9 -24 -15 -26 -16 -6 -12 -22 6
-22 12 0 15 -11 12 -56 -2 -31 -6 -58 -10 -60 -4 -3 -5 -10 -3 -17 11 -30 -12
-35 -185 -42 -96 -4 -177 -9 -179 -11 -2 -2 5 -4 17 -4 12 0 22 -4 22 -10 0
-5 18 -9 40 -7 22 1 40 6 40 10 0 4 57 6 127 5 l128 -3 -2 -47 c-1 -25 -8 -61
-16 -80 -10 -24 -10 -40 -3 -62 9 -24 7 -31 -12 -46 -18 -15 -28 -17 -55 -8
-17 5 -49 13 -70 18 -21 4 -44 13 -50 19 -6 6 -24 11 -39 11 -30 0 -92 22
-115 41 -10 9 -10 16 -1 33 9 18 9 19 -3 10 -26 -20 -66 -25 -73 -9 -3 10 -19
15 -45 15 -73 0 -139 20 -162 48 -11 15 -24 27 -27 27 -4 0 -6 3 -5 6 1 3 -24
6 -55 6 -34 0 -70 7 -89 16 -18 10 -43 17 -57 17 -14 0 -28 5 -31 10 -3 6 -13
10 -22 10 -9 0 -23 8 -32 18 -9 9 -27 18 -41 20 -82 6 -240 55 -240 74 0 5 4
6 10 3 5 -3 7 0 4 9 -6 16 -45 18 -55 3 -4 -6 -17 -3 -30 7 -13 9 -33 16 -44
16 -31 0 -75 23 -76 40 0 10 -2 11 -6 3 -7 -18 -37 -16 -86 6 -44 20 -82 33
-107 36 -22 3 -54 17 -61 27 -3 5 -15 10 -27 11 -11 0 -20 6 -19 12 1 5 -11
11 -28 12 -58 3 -217 42 -234 57 -10 9 -26 16 -37 16 -11 0 -30 9 -42 20 -14
13 -35 20 -61 20 -43 0 -134 38 -125 52 3 4 -3 5 -12 1 -11 -4 -15 -2 -11 4 4
7 -2 11 -16 11 -42 0 -122 12 -142 21 -11 5 -28 12 -37 15 -10 3 -18 13 -18
23 0 14 -9 18 -37 20 -72 4 -128 15 -145 30 -10 9 -24 13 -33 10 -13 -6 -15
19 -15 208 0 186 2 214 15 209 8 -4 15 -10 15 -15z m-78 -61 c-6 -6 -8 -1 -7
14 3 32 7 36 12 14 3 -10 1 -22 -5 -28z m-1510 -165 c31 -28 23 -66 -19 -90
-35 -20 -37 -21 -69 -3 l-33 19 -26 -36 c-21 -26 -33 -34 -51 -30 -14 2 -25
-1 -28 -9 -7 -18 -21 -18 -40 2 -23 22 -20 34 9 34 21 0 25 5 25 30 0 34 5 37
26 15 9 -8 22 -15 30 -15 8 0 14 7 14 15 0 8 9 15 20 15 11 0 20 6 20 14 0 20
42 24 57 6 11 -13 12 -12 13 6 0 11 -5 25 -12 32 -19 19 42 15 64 -5z m526
-89 c24 -24 14 -49 -27 -67 -36 -16 -71 -15 -71 3 0 5 -3 15 -6 24 -5 13 0 15
27 10 28 -4 31 -3 16 6 -13 8 -15 15 -8 24 13 15 53 15 69 0z m402 -715 c0 -6
-4 -7 -10 -4 -5 3 -10 11 -10 16 0 6 5 7 10 4 6 -3 10 -11 10 -16z m23 -39 c3
-11 1 -20 -4 -20 -5 0 -9 9 -9 20 0 11 2 20 4 20 2 0 6 -9 9 -20z m557 -52 c0
-10 9 -22 20 -28 21 -11 60 -87 60 -118 0 -10 -6 -27 -14 -37 -12 -17 -14 -15
-14 22 -1 43 -25 103 -42 103 -6 0 -10 7 -10 16 0 9 -6 22 -14 28 -8 6 -17 21
-21 34 -6 22 -5 22 14 10 12 -7 21 -21 21 -30z m-504 -11 c10 -12 25 -35 33
-50 8 -15 18 -27 23 -27 4 0 8 -9 8 -21 0 -12 11 -34 25 -51 23 -27 33 -58 20
-58 -10 0 -54 54 -61 75 -4 11 -20 33 -35 49 -16 17 -29 38 -29 48 0 10 -4 18
-10 18 -5 0 -10 9 -10 20 0 26 12 25 36 -3z"/>
<path d="M9190 4090 c0 -16 5 -30 10 -30 6 0 10 14 10 30 0 17 -4 30 -10 30
-5 0 -10 -13 -10 -30z"/>
<path d="M10145 4018 c-7 -26 -17 -33 -40 -28 -5 1 -23 2 -40 2 -16 -1 -34 3
-40 8 -6 4 -15 2 -22 -5 -10 -11 -7 -15 17 -20 16 -4 34 -4 40 0 5 3 10 0 10
-7 0 -13 7 -14 148 -18 54 -2 71 -5 57 -11 -17 -8 -15 -9 8 -5 15 2 30 -1 33
-5 3 -5 23 -9 44 -9 21 0 40 -5 42 -11 2 -7 9 -10 16 -8 8 3 7 13 -5 37 -16
34 -47 43 -57 17 -5 -13 -13 -14 -55 -6 -2 1 2 8 9 16 8 10 9 19 4 24 -11 11
-124 -9 -124 -21 0 -4 -11 -8 -25 -8 -16 0 -25 6 -25 15 0 8 7 15 15 15 17 0
17 6 5 35 -7 18 -8 18 -15 -7z"/>
<path d="M9361 4004 c0 -11 3 -14 6 -6 3 7 2 16 -1 19 -3 4 -6 -2 -5 -13z"/>
<path d="M9873 3993 c21 -21 98 -26 90 -6 -4 9 -15 12 -39 7 -22 -4 -34 -2
-34 5 0 6 -8 11 -17 11 -16 0 -16 -1 0 -17z"/>
<path d="M9580 3990 c-8 -5 -37 -10 -65 -11 -37 -2 -41 -3 -17 -6 32 -4 42
-17 20 -26 -7 -3 -2 -6 11 -6 17 -1 22 3 17 15 -5 14 3 15 63 11 38 -2 74 -8
81 -12 9 -5 11 -4 6 3 -4 7 -2 12 3 12 6 0 11 -6 11 -12 0 -9 3 -10 8 -2 4 6
14 14 22 17 8 3 -19 6 -62 6 -42 1 -78 5 -80 11 -2 6 -8 6 -18 0z"/>
<path d="M10457 3972 c-30 -4 -27 -22 4 -22 13 0 18 -4 13 -12 -5 -10 -4 -10
5 -2 21 19 9 39 -22 36z"/>
<path d="M10640 3960 c0 -19 11 -26 23 -14 8 8 -3 34 -14 34 -5 0 -9 -9 -9
-20z"/>
<path d="M9810 3960 c0 -6 7 -10 15 -10 8 0 15 2 15 4 0 2 -7 6 -15 10 -8 3
-15 1 -15 -4z"/>
<path d="M10515 3960 c-15 -6 -6 -9 33 -9 28 -1 52 4 52 9 0 12 -57 12 -85 0z"/>
<path d="M9470 3951 c0 -5 -3 -17 -7 -27 -4 -12 -2 -15 8 -12 8 3 13 11 11 18
-2 7 3 17 10 21 10 7 9 9 -4 9 -10 0 -18 -4 -18 -9z"/>
<path d="M9190 3938 c0 -7 5 -20 10 -28 8 -12 10 -9 10 13 0 15 -4 27 -10 27
-5 0 -10 -6 -10 -12z"/>
<path d="M9300 3934 c0 -8 5 -12 10 -9 6 4 8 11 5 16 -9 14 -15 11 -15 -7z"/>
<path d="M10865 3922 l-30 -4 35 -12 c24 -8 39 -8 46 -1 9 7 9 12 0 17 -6 4
-13 7 -16 6 -3 0 -18 -3 -35 -6z"/>
<path d="M10952 3921 c-23 -14 36 -30 136 -36 58 -3 92 -1 92 5 0 5 -15 10
-34 10 -19 0 -37 6 -39 13 -4 10 -6 10 -6 0 -1 -15 -87 -18 -93 -4 -5 13 -42
21 -56 12z"/>
<path d="M10455 3896 c-18 -13 -18 -14 1 -19 10 -2 36 -4 56 -3 22 2 35 -1 31
-7 -3 -5 0 -7 8 -5 8 3 31 -3 52 -14 45 -22 80 -20 85 5 3 14 -4 17 -43 17
-38 0 -47 4 -55 23 -5 12 -9 16 -9 9 -1 -13 -91 -13 -91 1 0 11 -14 8 -35 -7z"/>
<path d="M10734 3856 c-11 -30 15 -46 75 -46 31 0 61 -4 67 -9 5 -6 50 -11 99
-12 50 -1 95 -6 102 -11 7 -5 14 -5 18 2 11 18 -3 24 -59 25 -29 0 -60 6 -68
13 -13 10 -17 10 -22 -3 -5 -14 -10 -13 -35 6 -27 20 -47 21 -117 8 -20 -3
-35 1 -30 10 3 5 -1 14 -9 21 -12 10 -16 9 -21 -4z"/>
<path d="M9193 3852 c-8 -5 -9 -13 -3 -22 11 -17 23 -8 18 14 -2 9 -8 12 -15
8z"/>
<path d="M9602 3822 c-24 -19 -20 -32 9 -32 22 0 28 10 20 32 -6 16 -7 16 -29
0z"/>
<path d="M10000 3830 c0 -5 7 -10 15 -10 8 0 15 5 15 10 0 6 -7 10 -15 10 -8
0 -15 -4 -15 -10z"/>
<path d="M9290 3811 c-15 -29 -12 -33 10 -14 21 19 26 33 10 33 -5 0 -14 -9
-20 -19z"/>
<path d="M9692 3816 c7 -8 16 -12 21 -9 11 7 -2 23 -19 23 -12 0 -12 -2 -2
-14z"/>
<path d="M9900 3821 c0 -6 -17 -12 -37 -14 -35 -3 -34 -4 10 -5 36 -2 47 2 47
13 0 8 -4 15 -10 15 -5 0 -10 -4 -10 -9z"/>
<path d="M9342 3808 c-18 -18 -15 -25 10 -24 13 1 24 9 26 19 4 20 -18 23 -36
5z"/>
<path d="M9432 3805 c-11 -12 -10 -15 3 -15 8 0 18 -1 22 -2 3 -2 7 5 9 15 3
21 -16 22 -34 2z"/>
<path d="M9502 3808 c7 -20 58 -23 58 -4 0 11 -10 16 -31 16 -20 0 -29 -4 -27
-12z"/>
<path d="M11524 3779 c-3 -5 18 -9 47 -9 29 0 50 2 48 4 -10 9 -90 13 -95 5z"/>
<path d="M11645 3780 c-4 -6 5 -10 19 -10 14 0 26 5 26 10 0 6 -9 10 -19 10
-11 0 -23 -4 -26 -10z"/>
<path d="M11143 3773 c16 -3 31 -11 34 -19 7 -19 53 -18 53 1 0 8 5 15 12 15
6 0 8 3 5 7 -4 3 -18 0 -32 -7 -20 -10 -28 -11 -37 -2 -7 7 -23 11 -37 11 -25
-2 -25 -2 2 -6z"/>
<path d="M10185 3740 c-11 -5 -15 -9 -10 -10 6 -1 1 -5 -10 -10 -18 -8 -17 -9
7 -9 36 -1 58 8 58 25 0 16 -15 17 -45 4z"/>
<path d="M10345 3739 c-4 -6 -4 -13 -1 -16 3 -4 6 -1 6 5 0 6 8 13 18 15 15 4
15 5 0 6 -9 0 -20 -4 -23 -10z"/>
<path d="M10492 3739 c5 -14 16 -15 21 -2 1 3 -4 8 -12 11 -8 3 -12 -1 -9 -9z"/>
<path d="M10565 3740 c3 -5 17 -10 31 -10 13 0 24 5 24 10 0 6 -14 10 -31 10
-17 0 -28 -4 -24 -10z"/>
<path d="M9780 3730 c0 -5 5 -10 10 -10 6 0 10 5 10 10 0 6 -4 10 -10 10 -5 0
-10 -4 -10 -10z"/>
<path d="M9900 3731 c0 -4 11 -6 25 -3 14 2 25 6 25 8 0 2 -11 4 -25 4 -14 0
-25 -4 -25 -9z"/>
<path d="M9980 3736 c0 -8 51 -13 56 -5 3 5 -9 9 -25 9 -17 0 -31 -2 -31 -4z"/>
<path d="M9603 3723 c9 -2 23 -2 30 0 6 3 -1 5 -18 5 -16 0 -22 -2 -12 -5z"/>
<path d="M9670 3720 c0 -5 -7 -10 -15 -10 -8 0 -15 -4 -15 -9 0 -12 33 -9 42
4 11 14 10 25 -2 25 -5 0 -10 -4 -10 -10z"/>
<path d="M10550 3720 c0 -5 5 -10 10 -10 6 0 10 5 10 10 0 6 -4 10 -10 10 -5
0 -10 -4 -10 -10z"/>
<path d="M9561 3704 c0 -11 3 -14 6 -6 3 7 2 16 -1 19 -3 4 -6 -2 -5 -13z"/>
<path d="M9740 3710 c-13 -8 -12 -10 3 -10 9 0 17 5 17 10 0 12 -1 12 -20 0z"/>
<path d="M11500 3678 c0 -20 31 -28 74 -18 26 6 36 4 40 -6 5 -14 52 -19 80
-8 16 6 23 34 9 34 -5 0 -52 3 -105 7 -84 5 -98 3 -98 -9z"/>
<path d="M10360 3670 c-19 -4 -29 -8 -22 -9 7 0 11 -5 8 -10 -8 -12 20 -22 39
-15 8 4 15 15 15 25 0 10 -1 18 -2 18 -2 -1 -19 -5 -38 -9z"/>
<path d="M11120 3676 c0 -9 40 -13 46 -5 3 5 -6 9 -20 9 -14 0 -26 -2 -26 -4z"/>
<path d="M11215 3670 c18 -7 16 -8 -10 -12 -16 -3 12 -6 64 -7 52 0 91 2 88 6
-4 3 -20 6 -37 5 -17 0 -28 4 -25 9 4 5 -16 9 -47 8 -37 0 -47 -3 -33 -9z"/>
<path d="M10233 3659 c-5 -5 -38 -10 -71 -10 -113 -1 -77 -24 48 -31 42 -3 45
-1 48 25 3 28 -6 35 -25 16z"/>
<path d="M10287 3656 c-7 -16 1 -26 20 -26 7 0 13 9 13 20 0 23 -25 27 -33 6z"/>
<path d="M10746 3661 c-10 -16 5 -41 25 -41 11 0 22 7 26 16 9 24 -38 47 -51
25z"/>
<path d="M11755 3659 l-40 -6 42 -2 c23 0 45 -5 48 -11 4 -6 -5 -8 -22 -6 -15
2 -20 1 -10 -1 9 -2 17 -9 17 -14 0 -5 12 -9 28 -9 15 0 22 4 16 8 -5 4 -17
16 -25 27 -11 16 -21 19 -54 14z"/>
<path d="M9982 3639 c1 -12 10 -24 18 -26 12 -4 12 -3 1 5 -7 6 -9 11 -3 13 6
2 4 10 -5 18 -13 12 -14 10 -11 -10z"/>
<path d="M9900 3629 c0 -5 5 -7 10 -4 6 3 10 8 10 11 0 2 -4 4 -10 4 -5 0 -10
-5 -10 -11z"/>
<path d="M11420 3610 c0 -5 5 -10 11 -10 5 0 7 5 4 10 -3 6 -8 10 -11 10 -2 0
-4 -4 -4 -10z"/>
<path d="M9828 3603 c7 -3 16 -2 19 1 4 3 -2 6 -13 5 -11 0 -14 -3 -6 -6z"/>
<path d="M10958 3603 c7 -3 16 -2 19 1 4 3 -2 6 -13 5 -11 0 -14 -3 -6 -6z"/>
<path d="M10439 3588 c7 -10 20 -18 27 -18 8 0 14 -4 14 -8 0 -5 7 -9 15 -9 8
0 15 6 15 14 0 8 -11 13 -28 13 -15 0 -34 6 -42 13 -12 10 -12 9 -1 -5z"/>
<path d="M11075 3581 c-17 -7 -14 -9 16 -12 19 -3 46 -2 60 2 20 6 21 7 4 8
-11 1 -29 3 -40 6 -11 2 -29 0 -40 -4z"/>
<path d="M11468 3583 c12 -2 30 -2 40 0 9 3 -1 5 -23 4 -22 0 -30 -2 -17 -4z"/>
<path d="M10325 3570 c-3 -5 -1 -10 4 -10 6 0 11 5 11 10 0 6 -2 10 -4 10 -3
0 -8 -4 -11 -10z"/>
<path d="M11810 3516 c0 -2 9 -6 20 -9 11 -3 20 -1 20 4 0 5 -9 9 -20 9 -11 0
-20 -2 -20 -4z"/>
<path d="M10477 3486 c-7 -19 0 -25 24 -19 15 4 17 8 8 19 -15 18 -25 18 -32
0z"/>
<path d="M10609 3488 c-1 -7 -1 -16 0 -20 0 -5 -5 -8 -13 -8 -9 0 -12 -7 -9
-20 5 -20 6 -19 28 4 13 14 26 22 30 18 4 -4 6 2 3 13 -4 22 -37 34 -39 13z"/>
<path d="M10680 3480 c0 -5 5 -10 10 -10 6 0 10 5 10 10 0 6 -4 10 -10 10 -5
0 -10 -4 -10 -10z"/>
<path d="M10740 3486 c0 -1 5 -17 11 -35 16 -46 51 -39 57 12 3 25 1 27 -32
27 -20 0 -36 -2 -36 -4z"/>
<path d="M11020 3481 c0 -5 40 -11 89 -13 68 -2 87 0 84 10 -6 14 -173 17
-173 3z"/>
<path d="M11455 3480 c28 -12 45 -12 45 0 0 6 -15 10 -32 9 -28 0 -30 -2 -13
-9z"/>
<path d="M10305 3470 c-3 -5 1 -10 10 -10 9 0 13 5 10 10 -3 6 -8 10 -10 10
-2 0 -7 -4 -10 -10z"/>
<path d="M10548 3473 c7 -3 16 -2 19 1 4 3 -2 6 -13 5 -11 0 -14 -3 -6 -6z"/>
<path d="M11550 3460 c0 -13 7 -20 20 -20 13 0 17 5 14 14 -9 24 -34 28 -34 6z"/>
<path d="M11231 3453 c-13 -14 -12 -15 12 -11 14 3 24 1 21 -3 -3 -5 2 -9 10
-9 22 0 20 17 -3 30 -24 12 -23 13 -40 -7z"/>
<path d="M11420 3390 c0 -5 9 -10 20 -10 11 0 20 5 20 10 0 6 -9 10 -20 10
-11 0 -20 -4 -20 -10z"/>
<path d="M11793 3393 c9 -2 25 -2 35 0 9 3 1 5 -18 5 -19 0 -27 -2 -17 -5z"/>
<path d="M10835 3385 c24 -8 154 -11 149 -4 -3 5 -40 9 -82 8 -42 0 -72 -2
-67 -4z"/>
<path d="M11011 3385 c11 -11 159 -17 159 -6 0 7 -29 11 -82 11 -45 0 -79 -2
-77 -5z"/>
<path d="M11213 3383 c9 -2 23 -2 30 0 6 3 -1 5 -18 5 -16 0 -22 -2 -12 -5z"/>
<path d="M11338 3383 c6 -2 18 -2 25 0 6 3 1 5 -13 5 -14 0 -19 -2 -12 -5z"/>
<path d="M11488 3323 c-10 -2 -18 -9 -18 -14 0 -5 -11 -9 -25 -9 -14 0 -25 5
-25 10 0 13 -57 13 -62 1 -1 -6 -41 -13 -88 -16 -46 -3 -86 -7 -87 -9 -2 -2
95 -2 214 -2 120 1 217 5 216 9 -2 4 -3 12 -3 18 0 8 -4 8 -14 0 -10 -9 -15
-8 -20 4 -5 15 -48 19 -88 8z"/>
<path d="M10953 3306 c-4 -7 -15 -16 -23 -19 -9 -3 -4 -6 11 -6 19 -1 28 5 32
19 6 23 -8 27 -20 6z"/>
<path d="M11760 3312 c0 -12 19 -26 26 -19 2 2 -2 10 -11 17 -9 8 -15 8 -15 2z"/>
<path d="M11804 3305 c8 -8 21 -15 28 -15 10 0 10 2 -1 9 -11 7 -11 9 0 14 8
3 1 6 -14 6 -25 1 -27 -1 -13 -14z"/>
<path d="M11128 3293 c6 -2 18 -2 25 0 6 3 1 5 -13 5 -14 0 -19 -2 -12 -5z"/>
<path d="M11610 3231 c0 -11 4 -22 9 -25 11 -7 23 22 15 35 -9 16 -24 10 -24
-10z"/>
<path d="M11695 3230 c-19 -8 -19 -9 3 -9 12 -1 22 4 22 9 0 6 -1 10 -2 9 -2
0 -12 -4 -23 -9z"/>
<path d="M11731 3214 c0 -11 3 -14 6 -6 3 7 2 16 -1 19 -3 4 -6 -2 -5 -13z"/>
<path d="M11833 3223 c9 -2 25 -2 35 0 9 3 1 5 -18 5 -19 0 -27 -2 -17 -5z"/>
<path d="M11332 3116 c7 -7 19 -11 25 -9 22 9 14 23 -12 23 -21 0 -24 -2 -13
-14z"/>
<path d="M11580 3006 c0 -2 7 -6 15 -10 8 -3 15 -1 15 4 0 6 -7 10 -15 10 -8
0 -15 -2 -15 -4z"/>
<path d="M11728 2992 c-40 -5 -34 -22 7 -22 19 0 35 4 35 9 0 14 -11 17 -42
13z"/>
<path d="M5128 4555 c-2 -2 -76 -7 -164 -10 -155 -6 -250 -10 -464 -20 -58 -3
-150 -7 -205 -10 -55 -2 -161 -7 -235 -11 -74 -4 -164 -7 -200 -5 -35 1 -61
-1 -57 -5 3 -4 2 -15 -3 -24 -12 -23 7 -80 26 -80 8 0 13 -3 12 -7 -1 -5 6
-23 16 -42 19 -36 12 -51 -26 -51 -33 0 -19 -29 17 -36 50 -9 43 -23 -10 -22
-25 0 -48 -2 -51 -4 -2 -3 3 -22 12 -43 8 -20 16 -55 16 -76 0 -32 5 -40 23
-45 21 -5 21 -8 12 -52 -6 -26 -17 -51 -24 -55 -7 -5 -11 -21 -9 -40 3 -18 -2
-39 -10 -47 -7 -9 -11 -25 -7 -38 5 -20 11 -22 72 -20 36 2 158 -1 271 -7 240
-11 317 -11 385 -1 28 4 61 9 75 11 14 2 48 7 75 11 60 9 222 9 360 0 83 -5
131 -16 290 -66 303 -96 284 -91 308 -78 12 7 25 13 30 14 4 1 9 3 12 4 3 1
10 4 15 5 6 1 12 4 15 5 3 1 10 4 15 5 6 1 12 4 15 5 3 1 10 4 15 5 6 1 12 4
15 5 3 1 10 4 15 5 6 1 12 4 15 5 3 1 11 3 18 4 6 1 10 8 8 16 -3 8 -7 58 -9
112 -3 87 -6 97 -24 101 -12 3 -27 -1 -36 -10 -13 -13 -14 -23 -4 -70 12 -60
1 -103 -27 -103 -13 0 -16 11 -16 59 0 33 4 63 8 67 9 9 -12 34 -29 34 -8 0
-11 -6 -7 -16 5 -13 0 -15 -27 -12 -20 2 -35 -2 -37 -9 -3 -9 7 -13 31 -13 24
0 36 -5 36 -14 0 -21 -24 -26 -52 -12 -15 8 -47 11 -86 8 -55 -4 -62 -3 -56
12 6 15 -3 17 -80 15 -54 -1 -92 3 -99 10 -8 8 -6 11 9 12 10 1 26 3 34 4 8 1
30 3 49 4 19 0 32 3 29 6 -5 5 -131 9 -653 19 -88 2 -171 6 -185 10 -24 6 -60
-7 -49 -18 3 -3 23 -6 45 -7 114 -3 194 -12 194 -21 0 -6 -11 -8 -25 -6 -14 3
-27 2 -30 -2 -5 -8 -102 -14 -190 -12 -379 9 -394 11 -359 37 14 10 -1 12 -90
14 -59 1 -113 3 -119 4 -6 1 -13 -8 -15 -20 -3 -23 -26 -30 -50 -15 -18 12
-31 66 -21 84 6 10 4 26 -6 44 -10 19 -11 33 -4 46 6 11 6 25 1 35 -20 35 11
83 54 83 33 0 124 -32 118 -41 -3 -5 1 -9 9 -9 8 0 29 -8 48 -17 27 -14 56
-16 143 -14 114 2 139 10 202 57 26 20 43 24 102 24 39 0 74 -4 77 -10 3 -5
14 -10 23 -10 10 0 26 -11 36 -25 10 -13 33 -27 50 -30 53 -8 307 -14 302 -6
-3 4 8 20 24 35 51 47 179 45 233 -5 14 -13 38 -16 113 -16 89 0 125 10 90 23
-32 12 -3 24 57 22 l62 -1 -60 -7 c-33 -4 -52 -7 -42 -8 10 -1 17 -10 17 -21
0 -26 17 -36 35 -21 8 7 21 10 30 6 16 -6 69 37 58 48 -4 4 1 4 11 0 14 -5 15
-9 4 -15 -10 -6 -10 -11 0 -21 6 -6 12 -20 12 -31 0 -32 24 -12 28 24 2 19 8
40 14 47 6 7 8 16 4 19 -4 4 -100 6 -214 6 -252 -2 -262 -1 -262 37 0 27 -15
40 -46 40 -9 0 -14 -11 -14 -30 0 -16 -4 -30 -9 -30 -12 0 -24 177 -16 234 7
47 31 61 29 17 0 -11 2 -21 6 -21 4 0 5 -13 2 -30 -9 -60 17 -28 32 39 9 39
16 71 16 73 0 5 -117 7 -122 3z m-361 -81 c-3 -3 -12 -4 -19 -1 -8 3 -5 6 6 6
11 1 17 -2 13 -5z m70 0 c-3 -3 -12 -4 -19 -1 -8 3 -5 6 6 6 11 1 17 -2 13 -5z
m270 -6 c4 -7 8 -17 10 -23 1 -5 6 -24 11 -41 7 -22 6 -35 -3 -48 -11 -15 -36
-18 -182 -22 -92 -3 -201 -9 -241 -14 -40 -4 -81 -6 -92 -3 -11 3 -20 1 -20
-5 0 -5 -15 -9 -32 -8 -26 1 -33 -3 -32 -17 2 -17 0 -17 -21 -3 -13 9 -25 11
-27 6 -2 -6 -9 -6 -18 0 -20 12 -9 20 33 23 20 2 40 7 44 11 5 4 -8 7 -27 5
-19 -2 -40 0 -45 3 -6 4 -64 7 -130 8 -66 1 -129 2 -140 2 -11 0 -31 -2 -45
-5 -89 -23 -117 -30 -131 -37 -9 -5 -22 -4 -29 0 -8 5 -22 4 -31 -1 -25 -13
-56 -11 -57 4 0 6 -4 29 -8 50 -11 63 6 82 74 83 31 0 149 4 262 9 279 10 611
9 619 -3 8 -12 51 3 51 18 0 6 7 4 16 -4 19 -20 50 -21 61 -2 5 9 28 16 58 19
28 2 53 4 57 5 4 1 10 -4 15 -10z m-150 -4 c-3 -3 -12 -4 -19 -1 -8 3 -5 6 6
6 11 1 17 -2 13 -5z m163 -160 c0 -11 -5 -14 -16 -10 -9 3 -21 6 -27 6 -16 0
14 20 31 20 6 0 12 -7 12 -16z m-725 -54 c4 -6 0 -20 -7 -32 -13 -20 -24 -21
-149 -23 -113 -2 -136 1 -146 14 -9 13 -8 20 4 34 14 15 35 17 154 17 85 0
140 -4 144 -10z m650 1 c3 -5 0 -21 -6 -35 l-12 -26 -149 2 c-121 1 -151 4
-157 17 -5 9 -4 22 2 33 11 16 28 18 164 18 83 0 154 -4 158 -9z m288 -58 c-7
-2 -19 -2 -25 0 -7 3 -2 5 12 5 14 0 19 -2 13 -5z m-343 -268 c0 -10 -10 -15
-31 -15 -27 0 -30 2 -19 15 7 8 21 15 31 15 11 0 19 -7 19 -15z m198 2 c45 1
82 -3 82 -8 0 -5 -6 -10 -12 -10 -32 -4 -213 3 -217 7 -10 10 24 23 44 17 11
-3 57 -6 103 -6z m249 -44 c-11 -10 -56 -12 -62 -2 -4 5 11 9 31 9 21 0 34 -3
31 -7z m237 -56 c13 -48 12 -48 -91 -42 -135 7 -202 16 -209 26 -3 5 -15 9
-26 9 -12 0 -18 3 -15 7 4 3 38 7 76 7 38 1 73 4 76 8 4 4 47 7 95 7 82 0 88
-2 94 -22z"/>
<path d="M4390 4420 c0 -5 9 -10 20 -10 11 0 20 5 20 10 0 6 -9 10 -20 10 -11
0 -20 -4 -20 -10z"/>
<path d="M4673 4423 c9 -2 23 -2 30 0 6 3 -1 5 -18 5 -16 0 -22 -2 -12 -5z"/>
<path d="M1348 4328 l3 -218 -50 0 c-73 0 -103 -28 -104 -98 -1 -37 5 -60 19
-78 l19 -25 1213 0 c779 0 1212 -3 1212 -9 0 -6 30 -10 66 -10 56 0 65 2 60
16 -3 9 -6 76 -6 150 l0 134 -65 0 -65 0 0 -40 0 -40 -295 0 c-354 0 -344 3
-340 -94 4 -72 -6 -101 -24 -67 -15 26 -17 67 -7 104 l8 28 -73 -3 c-41 -2
-128 -1 -194 1 -172 5 -100 18 108 20 l168 1 -3 48 c-3 51 3 49 -80 35 -24 -3
-38 -11 -38 -21 0 -11 -3 -12 -14 -3 -11 9 -15 9 -18 0 -5 -15 -54 9 -81 39
-18 20 -18 21 2 31 11 6 69 11 130 11 96 0 112 -2 120 -18 6 -11 6 -24 1 -33
-5 -7 -9 -30 -8 -50 1 -30 4 -35 20 -31 18 4 22 26 18 100 l-2 32 365 0 366 0
3 85 3 85 -470 0 c-396 0 -474 -2 -491 -15 -12 -8 -31 -37 -43 -65 -12 -28
-52 -89 -88 -135 l-67 -85 -438 0 c-427 0 -438 0 -448 -20 -6 -12 -21 -20 -36
-20 -35 0 -21 -16 21 -24 63 -12 47 -25 -32 -27 -240 -6 -346 -4 -351 9 -2 7
9 15 27 18 36 7 40 20 10 29 -20 7 -20 7 -2 24 15 14 37 17 116 17 53 -1 97 2
97 6 0 3 -3 13 -6 21 -5 13 -9 13 -35 0 -20 -10 -42 -13 -70 -8 -44 8 -58 27
-38 51 10 13 10 17 -2 25 -8 5 -20 9 -27 9 -7 0 -10 5 -7 10 3 6 22 10 41 10
21 0 33 4 29 10 -3 6 -15 10 -26 10 -17 0 -19 5 -13 35 5 27 3 36 -10 41 -20
7 -23 80 -3 86 6 3 28 4 47 3 19 -1 49 -3 66 -4 35 -1 43 -14 50 -74 2 -22 10
-53 19 -70 8 -16 15 -34 15 -40 0 -12 69 -124 85 -137 8 -6 17 -5 29 3 17 13
16 19 -14 113 -18 54 -36 104 -40 109 -3 6 -19 49 -34 97 -16 48 -33 94 -40
102 -8 11 -41 15 -136 18 l-125 3 3 -217z m331 -87 c1 -24 -26 7 -33 37 -3 15
-8 38 -11 52 -3 14 6 3 19 -25 14 -27 25 -56 25 -64z m1426 85 c18 -3 20 -19
3 -29 -12 -8 -21 -7 -32 2 -22 19 -21 45 2 36 9 -4 22 -8 27 -9z m154 -3 c3
-2 -2 -11 -11 -19 -12 -13 -20 -14 -37 -5 -35 19 -27 42 12 34 17 -3 34 -8 36
-10z m106 6 c4 -6 13 -8 21 -5 8 3 14 -1 14 -8 0 -19 -30 -29 -46 -15 -16 13
-19 39 -5 39 6 0 13 -5 16 -11z m168 -9 c4 -4 1 -12 -7 -19 -18 -15 -56 2 -56
25 0 11 7 13 28 8 15 -4 31 -10 35 -14z m-518 -15 c0 -11 -119 -20 -142 -11
-8 3 -11 11 -8 16 8 14 150 9 150 -5z m638 -309 c1 -23 -2 -43 -8 -46 -15 -8
-28 55 -20 97 7 36 8 37 16 14 5 -13 10 -42 12 -65z m-1119 15 c10 -68 -17
-102 -30 -36 -7 39 2 89 15 81 5 -3 11 -23 15 -45z m326 23 c0 -2 -28 -3 -62
-3 -56 2 -58 3 -23 8 38 6 85 3 85 -5z m-147 -1 c-7 -2 -19 -2 -25 0 -7 3 -2
5 12 5 14 0 19 -2 13 -5z m547 3 c0 -3 -4 -8 -10 -11 -5 -3 -10 -1 -10 4 0 6
5 11 10 11 6 0 10 -2 10 -4z m160 -12 c0 -2 -33 -3 -72 -3 -53 1 -63 3 -38 8
35 6 110 3 110 -5z m-1057 -1 c-7 -2 -19 -2 -25 0 -7 3 -2 5 12 5 14 0 19 -2
13 -5z m720 0 c-7 -2 -19 -2 -25 0 -7 3 -2 5 12 5 14 0 19 -2 13 -5z m126 3
c-2 -2 -26 -6 -54 -9 -34 -4 -42 -3 -25 3 25 8 87 13 79 6z m258 -2 c-3 -3
-12 -4 -19 -1 -8 3 -5 6 6 6 11 1 17 -2 13 -5z m83 -6 c0 -10 -19 -9 -45 2
-16 7 -14 8 12 7 18 -1 33 -5 33 -9z m-1653 -4 c-3 -3 -12 -4 -19 -1 -8 3 -5
6 6 6 11 1 17 -2 13 -5z m70 0 c-3 -3 -12 -4 -19 -1 -8 3 -5 6 6 6 11 1 17 -2
13 -5z m843 -4 c-13 -8 -13 -10 2 -10 9 0 19 -4 22 -9 5 -8 -223 -5 -231 3 -4
3 139 20 202 24 16 1 17 0 5 -8z m105 -10 c4 -6 -8 -10 -29 -10 -20 0 -36 5
-36 10 0 6 13 10 29 10 17 0 33 -4 36 -10z"/>
<path d="M8000 4400 c-9 -4 -59 -10 -113 -12 -69 -2 -97 -7 -97 -15 0 -20 -28
-15 -33 5 -4 15 -5 15 -6 0 -2 -26 17 -32 60 -18 29 10 42 10 52 2 10 -9 36
-9 98 -1 46 5 98 10 114 11 17 0 22 3 13 5 -10 2 -18 11 -18 19 0 16 -46 19
-70 4z"/>
<path d="M7650 4375 c0 -8 9 -15 20 -15 11 0 20 2 20 5 0 2 -9 9 -20 15 -16 9
-20 8 -20 -5z"/>
<path d="M6380 4371 c-81 -6 -85 -7 -85 -30 0 -20 -6 -24 -34 -27 -19 -2 -40
1 -47 7 -11 9 -14 8 -14 -3 0 -23 -56 -20 -97 5 -20 11 -31 23 -25 25 14 4 6
22 -9 22 -6 0 -8 -4 -5 -9 3 -5 -1 -14 -9 -21 -10 -9 -15 -9 -15 -1 0 20 -51
13 -57 -8 -3 -11 -11 -21 -19 -23 -9 -2 -11 -8 -5 -17 7 -11 95 -14 507 -16
275 -2 514 -1 532 2 34 6 45 23 13 23 -14 0 -17 6 -13 25 4 24 2 25 -41 25
-39 0 -44 -2 -40 -19 7 -26 -8 -32 -51 -20 -25 7 -36 15 -32 24 6 17 -51 25
-201 29 -56 1 -106 5 -109 9 -4 4 -19 6 -33 5 -14 -1 -64 -4 -111 -7z m220
-51 c8 -16 7 -20 -4 -20 -8 0 -18 5 -21 10 -8 14 -65 13 -65 -1 0 -14 -112 -5
-164 15 -38 13 -33 14 102 14 131 1 143 0 152 -18z m68 -16 c-10 -10 -21 -13
-29 -8 -12 7 0 14 41 23 2 1 -3 -6 -12 -15z"/>
<path d="M7238 4374 c-5 -7 -44 -15 -88 -19 l-80 -7 2 -28 c1 -16 5 -27 9 -24
4 2 9 -1 11 -8 6 -17 98 -19 98 -2 0 13 -39 20 -77 15 -7 -1 -13 5 -13 14 0
10 10 15 30 15 17 0 30 -4 30 -9 0 -6 12 -6 32 0 33 9 133 12 110 2 -6 -2 -10
-9 -7 -14 4 -5 -7 -6 -25 -3 -26 6 -30 4 -30 -15 0 -15 6 -21 23 -21 21 0 73
29 54 30 -4 0 -3 9 3 20 6 11 7 20 3 19 -4 -1 -22 -1 -40 0 -25 1 -32 6 -35
24 -2 14 -6 18 -10 11z"/>
<path d="M7292 4371 c-10 -6 -6 -10 15 -14 32 -6 38 -3 28 12 -7 13 -25 14
-43 2z"/>
<path d="M7510 4370 c0 -5 5 -10 11 -10 5 0 7 5 4 10 -3 6 -8 10 -11 10 -2 0
-4 -4 -4 -10z"/>
<path d="M6146 4363 c-4 -5 -13 -8 -18 -8 -6 0 -13 -6 -15 -12 -6 -18 42 -16
61 2 18 18 43 20 48 3 2 -6 10 -8 16 -4 7 4 10 12 7 17 -7 11 -88 12 -99 2z"/>
<path d="M7376 4336 c4 -9 -3 -16 -18 -19 -15 -3 -10 -5 15 -6 20 0 37 4 37 9
0 6 13 10 29 10 17 0 33 5 36 10 4 6 -15 10 -49 10 -44 0 -54 -3 -50 -14z"/>
<path d="M7583 4333 c15 -2 37 -2 50 0 12 2 0 4 -28 4 -27 0 -38 -2 -22 -4z"/>
<path d="M7482 4289 c-13 -5 -28 -7 -33 -3 -5 3 -9 0 -9 -5 0 -7 23 -11 55
-11 42 0 55 3 55 15 0 17 -32 19 -68 4z"/>
<path d="M7565 4280 c3 -5 12 -10 20 -10 8 0 17 5 20 10 4 6 -5 10 -20 10 -15
0 -24 -4 -20 -10z"/>
<path d="M8135 4280 c-3 -5 3 -10 15 -10 12 0 18 5 15 10 -3 6 -10 10 -15 10
-5 0 -12 -4 -15 -10z"/>
<path d="M8350 4270 c0 -18 7 -20 57 -20 55 0 56 0 38 20 -12 13 -31 20 -57
20 -31 0 -38 -3 -38 -20z"/>
<path d="M7660 4270 c36 -11 52 -11 45 0 -3 6 -21 10 -38 9 -31 -1 -31 -1 -7
-9z"/>
<path d="M8185 4270 c-2 -4 6 -12 19 -18 20 -9 23 -8 19 7 -4 17 -30 24 -38
11z"/>
<path d="M8480 4270 c0 -10 99 -25 107 -16 10 10 1 13 -54 19 -29 3 -53 2 -53
-3z"/>
<path d="M8610 4270 c-12 -8 -11 -10 8 -10 12 0 22 5 22 10 0 13 -11 13 -30 0z"/>
<path d="M1540 4250 c0 -5 9 -10 20 -10 11 0 20 5 20 10 0 6 -9 10 -20 10 -11
0 -20 -4 -20 -10z"/>
<path d="M5779 4223 l-37 -4 4 -82 c3 -79 4 -82 26 -79 13 2 27 7 31 12 8 7
23 162 16 158 -2 -1 -20 -3 -40 -5z"/>
<path d="M6198 4213 c-36 -9 -16 -19 60 -31 42 -7 91 -14 108 -16 17 -2 40 -8
51 -14 15 -8 21 -7 30 7 10 16 27 17 155 16 87 -1 146 2 150 9 4 6 11 6 20 -1
7 -6 42 -9 77 -8 37 2 72 -2 83 -8 14 -9 20 -9 26 -1 9 14 192 29 192 16 0 -9
77 -15 195 -15 153 1 182 3 201 18 18 14 16 15 -21 14 -66 -2 -1103 11 -1210
15 -55 2 -108 1 -117 -1z"/>
<path d="M1490 4196 c7 -7 13 -7 20 0 6 6 3 10 -10 10 -13 0 -16 -4 -10 -10z"/>
<path d="M1584 4190 c1 -8 12 -17 25 -18 20 -3 22 -2 10 11 -9 10 -16 11 -20
4 -5 -6 -9 -5 -11 4 -4 11 -5 10 -4 -1z"/>
<path d="M8167 4195 c-14 -7 -29 -10 -32 -7 -4 4 -1 -6 6 -23 19 -43 57 -66
44 -26 -3 12 0 21 10 25 16 6 20 31 7 40 -5 3 -20 -1 -35 -9z"/>
<path d="M1530 4196 c0 -2 7 -7 16 -10 8 -3 12 -2 9 4 -6 10 -25 14 -25 6z"/>
<path d="M7598 4193 c12 -2 22 -9 22 -14 0 -5 16 -9 35 -9 31 0 35 -3 35 -26
0 -16 5 -24 13 -21 7 2 11 16 9 35 l-4 32 51 0 c27 0 53 -4 56 -10 10 -16 35
-12 29 5 -5 12 -29 15 -138 14 -72 -1 -121 -4 -108 -6z"/>
<path d="M7893 4180 c-1 -14 4 -20 20 -20 13 0 30 9 40 20 16 19 16 20 -21 20
-31 0 -38 -4 -39 -20z"/>
<path d="M8272 4188 c-7 -7 -12 -21 -12 -32 0 -18 1 -18 25 4 14 13 25 27 25
32 0 12 -24 10 -38 -4z"/>
<path d="M8590 4181 c0 -18 18 -21 30 -6 10 13 9 15 -9 15 -11 0 -21 -4 -21
-9z"/>
<path d="M8918 4183 c7 -3 16 -2 19 1 4 3 -2 6 -13 5 -11 0 -14 -3 -6 -6z"/>
<path d="M4500 4159 c0 -5 9 -9 20 -9 11 0 20 2 20 4 0 2 -9 6 -20 9 -11 3
-20 1 -20 -4z"/>
<path d="M3948 4143 c-26 -7 -31 -34 -8 -40 14 -4 17 -9 11 -17 -4 -6 -7 -19
-6 -28 2 -10 -2 -19 -8 -19 -7 -1 4 -5 23 -8 63 -12 560 -4 520 9 -14 4 -69 6
-124 4 -85 -3 -96 -2 -86 11 11 13 6 15 -31 14 -24 0 -38 -3 -31 -6 6 -2 10
-9 7 -13 -7 -11 -37 -1 -47 14 -6 8 -11 7 -17 -3 -6 -9 -11 -10 -15 -2 -4 6
-31 11 -61 11 -73 0 -105 13 -98 39 3 12 9 21 14 21 5 0 9 5 9 10 0 10 -21 11
-52 3z"/>
<path d="M4045 4140 l-30 -8 33 -1 c17 0 32 4 32 9 0 6 -1 9 -2 9 -2 -1 -16
-5 -33 -9z"/>
<path d="M5181 4131 c-7 -5 -9 -11 -4 -14 5 -3 15 -2 22 2 7 5 9 11 4 14 -5 3
-15 2 -22 -2z"/>
<path d="M7690 4100 c0 -5 5 -10 10 -10 6 0 10 5 10 10 0 6 -4 10 -10 10 -5 0
-10 -4 -10 -10z"/>
<path d="M7917 4079 c7 -7 15 -10 18 -7 3 3 -2 9 -12 12 -14 6 -15 5 -6 -5z"/>
<path d="M4685 4070 c-7 -12 22 -12 50 0 17 7 15 9 -12 9 -17 1 -35 -3 -38 -9z"/>
<path d="M4919 4059 c-6 -12 -24 -19 -52 -22 -23 -2 84 -4 238 -4 154 0 272 2
263 4 -10 3 -18 9 -18 14 0 11 50 1 65 -12 13 -13 238 -12 230 1 -3 6 1 13 10
16 48 19 -41 24 -368 22 -329 -2 -359 -3 -368 -19z m330 -2 c22 6 41 7 41 3 0
-17 -154 -28 -165 -11 -7 13 46 19 66 7 10 -6 32 -5 58 1z m-149 -7 c0 -5 -12
-10 -26 -10 -14 0 -23 4 -19 10 3 6 15 10 26 10 10 0 19 -4 19 -10z"/>
<path d="M5686 4072 c-3 -6 2 -13 12 -18 14 -6 12 -9 -13 -15 l-30 -8 30 2
c22 2 30 7 30 21 0 21 -20 33 -29 18z"/>
<path d="M4823 4063 c9 -2 23 -2 30 0 6 3 -1 5 -18 5 -16 0 -22 -2 -12 -5z"/>
<path d="M1480 4050 c0 -5 7 -7 15 -4 8 4 15 8 15 10 0 2 -7 4 -15 4 -8 0 -15
-4 -15 -10z"/>
<path d="M1633 4053 c9 -2 23 -2 30 0 6 3 -1 5 -18 5 -16 0 -22 -2 -12 -5z"/>
<path d="M4705 4043 c-88 -6 -96 -24 -10 -22 93 1 132 8 114 20 -8 5 -21 8
-29 7 -8 -1 -42 -3 -75 -5z"/>
<path d="M4543 4033 c15 -2 37 -2 50 0 12 2 0 4 -28 4 -27 0 -38 -2 -22 -4z"/>
<path d="M1528 4023 c6 -2 18 -2 25 0 6 3 1 5 -13 5 -14 0 -19 -2 -12 -5z"/>
<path d="M8920 4016 c0 -9 5 -16 10 -16 6 0 10 4 10 9 0 6 -4 13 -10 16 -5 3
-10 -1 -10 -9z"/>
<path d="M4306 3971 c-8 -12 4 -20 20 -14 8 3 11 9 8 14 -7 11 -21 12 -28 0z"/>
<path d="M8878 3973 c7 -3 16 -2 19 1 4 3 -2 6 -13 5 -11 0 -14 -3 -6 -6z"/>
<path d="M5495 3962 c-59 -5 -64 -19 -8 -25 43 -4 68 -4 151 2 12 0 22 5 22
10 0 10 -101 18 -165 13z"/>
<path d="M4200 3950 c0 -13 20 -13 40 0 12 8 9 10 -12 10 -16 0 -28 -4 -28
-10z"/>
<path d="M4413 3953 c9 -2 23 -2 30 0 6 3 -1 5 -18 5 -16 0 -22 -2 -12 -5z"/>
<path d="M7194 3752 c-4 -15 -14 -22 -29 -22 -21 0 -22 -3 -15 -35 8 -38 -7
-108 -22 -99 -4 3 -8 -1 -8 -9 0 -12 39 -47 52 -47 3 0 4 10 12 115 4 50 10
73 23 82 13 10 14 16 5 25 -10 10 -14 8 -18 -10z"/>
<path d="M8650 3750 c-13 -8 -12 -10 3 -10 9 0 17 5 17 10 0 12 -1 12 -20 0z"/>
<path d="M6827 3711 c4 -17 8 -18 24 -8 26 16 24 27 -5 27 -19 0 -23 -4 -19
-19z"/>
<path d="M6963 3723 c9 -2 23 -2 30 0 6 3 -1 5 -18 5 -16 0 -22 -2 -12 -5z"/>
<path d="M6935 3700 c-3 -5 1 -10 10 -10 9 0 13 5 10 10 -3 6 -8 10 -10 10 -2
0 -7 -4 -10 -10z"/>
<path d="M8670 3695 c0 -11 43 -25 60 -20 34 11 22 25 -20 25 -22 0 -40 -2
-40 -5z"/>
<path d="M6810 3672 c0 -12 5 -22 10 -22 14 0 12 -38 -2 -42 -6 -2 -12 -23
-12 -45 -1 -23 -4 -44 -8 -48 -4 -4 -4 -13 -2 -20 3 -7 1 -16 -5 -19 -6 -4 -8
-13 -5 -20 3 -8 -2 -28 -10 -45 -9 -16 -16 -46 -16 -66 0 -20 -9 -54 -19 -76
-19 -39 -19 -39 0 -49 17 -10 19 -7 19 24 0 19 5 36 11 38 6 2 12 19 13 38 2
19 4 43 5 54 0 11 6 16 14 13 10 -4 13 2 9 18 -2 12 1 26 7 29 7 5 9 22 5 47
-6 34 -4 39 12 39 18 1 18 1 0 15 -15 11 -16 15 -5 15 11 0 14 10 11 43 -2 23
-6 49 -9 57 -4 8 -7 18 -7 22 -3 18 -16 18 -16 0z"/>
<path d="M7115 3670 c-3 -5 -1 -10 4 -10 6 0 11 5 11 10 0 6 -2 10 -4 10 -3 0
-8 -4 -11 -10z"/>
<path d="M6871 3638 c-1 -16 4 -28 9 -28 12 0 12 8 0 35 -8 18 -9 17 -9 -7z"/>
<path d="M6717 3568 c-3 -23 -13 -48 -22 -54 -11 -8 -19 -38 -26 -91 -5 -43
-10 -87 -11 -98 -2 -12 4 -21 13 -23 19 -3 30 43 32 141 1 38 6 57 15 57 8 0
12 18 12 55 0 66 -5 71 -13 13z"/>
<path d="M6953 3594 c3 -4 -1 -13 -9 -21 -8 -9 -12 -18 -9 -22 7 -6 35 27 35
41 0 4 -5 8 -12 8 -6 0 -9 -3 -5 -6z"/>
<path d="M8345 3582 c-23 -12 -32 -36 -26 -72 2 -8 2 -34 2 -57 -1 -31 4 -48
19 -63 18 -18 21 -18 26 -5 6 14 9 13 21 -5 15 -21 43 -28 43 -10 0 20 -32 60
-49 60 -9 0 -21 8 -28 18 -9 15 -7 21 7 30 14 9 20 8 23 -1 4 -9 7 -9 18 1 20
18 39 15 39 -8 0 -14 5 -18 16 -13 9 3 20 0 25 -8 6 -10 9 -6 9 14 0 17 -4 26
-10 22 -6 -4 -23 1 -37 11 -26 17 -27 17 -6 25 28 10 173 13 197 4 11 -5 21
-3 26 5 5 9 13 9 27 2 21 -12 61 -11 81 2 14 8 13 8 18 -19 6 -35 29 -95 36
-95 5 0 8 -7 8 -15 0 -20 81 -135 94 -135 6 0 4 4 -4 10 -8 5 -12 12 -8 15 8
8 -35 91 -65 125 -24 28 -36 132 -17 155 7 8 7 15 1 19 -19 12 -461 1 -486
-12z m53 -60 c-4 -23 -23 -25 -43 -6 -17 17 -17 18 1 25 26 9 46 0 42 -19z"/>
<path d="M7112 3523 c-10 -20 -5 -43 12 -56 8 -6 8 -10 -1 -13 -7 -3 -9 -18
-6 -41 5 -28 2 -39 -12 -49 -11 -8 -14 -14 -9 -14 20 0 2 -59 -28 -92 -30 -34
-25 -48 12 -28 15 8 19 17 15 31 -4 10 -2 19 4 19 18 0 39 54 38 98 -1 23 2
43 8 45 5 2 10 17 11 33 1 16 3 35 5 42 2 8 -6 20 -18 29 -19 13 -22 13 -31
-4z"/>
<path d="M8492 3423 l-34 -33 26 0 c14 0 26 -5 26 -11 0 -7 11 -9 27 -6 19 3
31 -1 44 -17 14 -17 20 -19 30 -8 19 18 45 16 30 -2 -15 -18 1 -30 30 -21 14
5 19 14 17 28 -2 17 -14 25 -48 33 -25 6 -50 8 -56 3 -6 -5 -19 -3 -29 5 -18
13 -18 14 5 12 17 -1 26 5 28 18 3 12 0 16 -7 11 -7 -4 -22 0 -34 7 -20 13
-25 11 -55 -19z"/>
<path d="M8690 3440 c0 -18 11 -25 33 -21 5 1 11 -8 14 -19 3 -11 14 -20 24
-20 25 0 24 5 -7 46 -29 38 -64 46 -64 14z"/>
<path d="M6917 3346 c-3 -8 -2 -18 3 -21 13 -8 24 15 12 27 -6 6 -11 4 -15 -6z"/>
<path d="M8440 3350 c0 -5 7 -10 15 -10 8 0 15 5 15 10 0 6 -7 10 -15 10 -8 0
-15 -4 -15 -10z"/>
<path d="M8750 3345 c0 -6 11 -17 25 -23 22 -10 25 -9 25 7 0 12 -9 20 -25 23
-15 3 -25 1 -25 -7z"/>
<path d="M8510 3306 c7 -7 13 -7 20 0 6 6 3 10 -10 10 -13 0 -16 -4 -10 -10z"/>
<path d="M8638 3303 c6 -2 12 -12 12 -21 0 -9 5 -24 10 -32 9 -13 11 -13 21 0
9 13 10 12 5 -2 -3 -10 -1 -20 3 -23 5 -3 7 -14 4 -25 -4 -14 0 -20 10 -20 16
0 33 -44 39 -105 2 -23 7 -29 21 -27 14 2 17 -1 13 -15 -3 -10 3 -28 14 -42
18 -20 22 -22 37 -10 15 13 15 12 5 -8 -26 -48 -18 -55 61 -49 85 6 77 4 77
14 0 5 -13 7 -30 4 -23 -3 -30 0 -30 12 0 9 7 16 15 16 16 0 20 35 15 150 -2
62 -4 67 -46 107 -24 22 -44 45 -44 51 0 11 -30 26 -45 22 -5 -1 -22 -2 -38
-2 -17 0 -31 -7 -37 -19 -9 -15 -15 -17 -30 -9 -11 6 -20 17 -20 25 0 10 -10
15 -27 14 -16 0 -22 -3 -15 -6z m176 -62 c17 -19 17 -21 -17 -51 -20 -17 -38
-43 -40 -58 -2 -15 -5 8 -6 51 -1 75 0 77 22 77 13 0 32 -9 41 -19z m60 -66
c-4 -9 0 -15 10 -15 38 0 -5 -80 -51 -94 -16 -5 -22 -1 -27 16 -10 40 -7 61
16 94 18 26 26 30 40 23 10 -5 15 -16 12 -24z m44 -137 c3 -22 -1 -28 -17 -28
-20 0 -51 24 -51 40 0 11 21 19 45 17 14 -1 21 -11 23 -29z m-30 -87 c-15 -5
-21 7 -13 26 7 17 8 17 15 -2 4 -11 3 -22 -2 -24z"/>
<path d="M6660 3263 c0 -14 -3 -23 -6 -20 -9 9 -44 -58 -44 -83 0 -15 -7 -20
-26 -20 -22 0 -24 -3 -15 -14 10 -12 8 -17 -9 -26 -20 -11 -20 -12 -4 -24 22
-17 10 -36 -23 -36 -23 0 -25 -3 -20 -30 5 -22 2 -32 -11 -39 -9 -6 -12 -11
-6 -11 16 0 25 -40 10 -40 -22 0 -36 -22 -25 -41 7 -15 6 -17 -6 -13 -10 4
-15 0 -15 -14 0 -24 -37 -72 -55 -72 -19 0 -29 -20 -17 -32 12 -12 -10 -54
-40 -76 -10 -7 -18 -19 -18 -26 0 -8 -7 -19 -16 -27 -14 -12 -14 -14 2 -26 15
-11 15 -13 2 -13 -9 0 -23 -12 -33 -27 -10 -16 -31 -42 -49 -59 -35 -34 -54
-60 -63 -87 -4 -12 -12 -17 -24 -14 -14 4 -19 0 -19 -13 0 -10 -31 -50 -70
-88 -38 -38 -70 -72 -70 -75 0 -3 -16 -21 -36 -41 -20 -20 -34 -39 -31 -43 3
-3 13 1 21 10 8 8 12 17 9 21 -4 3 1 6 10 6 8 0 17 4 19 9 2 5 9 11 17 13 7 2
34 25 60 53 25 27 53 57 61 65 9 8 14 22 13 31 -2 9 4 22 13 30 15 12 16 12
10 -9 -6 -16 8 -7 46 32 64 66 108 120 108 133 0 5 14 22 30 38 17 16 30 32
30 36 0 11 62 103 72 107 4 2 8 12 8 23 0 10 4 19 9 19 5 0 16 17 25 38 9 20
32 65 50 98 18 34 33 69 33 77 0 9 9 35 20 59 64 134 76 164 81 204 2 24 9 44
13 44 5 0 9 5 9 10 0 6 -7 10 -15 10 -10 0 -15 -10 -15 -27z m-230 -503 c0 -5
-2 -10 -4 -10 -3 0 -8 5 -11 10 -3 6 -1 10 4 10 6 0 11 -4 11 -10z"/>
<path d="M8585 3270 c-3 -5 -1 -10 4 -10 6 0 11 5 11 10 0 6 -2 10 -4 10 -3 0
-8 -4 -11 -10z"/>
<path d="M8540 3256 c0 -8 6 -21 14 -28 7 -8 21 -28 30 -46 9 -18 23 -32 31
-32 25 0 17 24 -21 59 -19 19 -33 40 -30 47 3 8 -1 14 -9 14 -8 0 -15 -6 -15
-14z"/>
<path d="M8950 3235 c0 -3 4 -13 9 -23 5 -9 13 -30 18 -47 5 -20 16 -31 31
-33 26 -4 26 -2 10 30 -25 46 -68 93 -68 73z"/>
<path d="M6707 3156 c-12 -27 -13 -35 -3 -39 7 -3 19 -1 27 4 12 8 12 10 -1
19 -13 9 -13 11 0 20 10 6 12 12 4 20 -7 7 -15 0 -27 -24z"/>
<path d="M8646 3090 c11 -18 29 -43 42 -57 12 -13 22 -29 23 -36 1 -23 36 -72
53 -75 14 -3 11 5 -13 39 -17 23 -31 48 -31 55 0 7 -11 23 -24 36 -13 13 -26
32 -28 43 -2 11 -12 21 -22 23 -18 4 -18 3 0 -28z"/>
<path d="M6683 3094 c-7 -7 -13 -20 -13 -29 0 -8 -3 -15 -8 -15 -6 0 -26 -49
-36 -92 -3 -9 -9 -25 -15 -36 -10 -19 -6 -32 12 -32 5 0 7 7 3 15 -3 9 3 19
14 25 16 8 18 15 10 35 -7 20 -6 25 5 25 8 0 25 21 37 48 32 66 32 65 20 58
-6 -3 -12 -2 -14 3 -1 5 -9 3 -15 -5z"/>
<path d="M6975 2995 c5 -42 3 -56 -11 -69 -9 -10 -14 -25 -11 -37 4 -13 -2
-29 -13 -41 -10 -11 -16 -27 -13 -34 3 -8 0 -21 -7 -29 -10 -13 -9 -15 9 -15
22 0 41 33 44 75 1 11 13 40 28 63 22 35 26 49 18 69 -14 36 -11 46 11 40 11
-3 20 -2 20 1 -1 20 -19 31 -49 30 l-33 -1 7 -52z"/>
<path d="M8990 3031 c0 -11 4 -21 9 -21 18 0 21 18 6 30 -13 10 -15 9 -15 -9z"/>
<path d="M8986 2974 c-8 -22 -8 -24 8 -24 12 0 26 20 26 36 0 12 -29 2 -34
-12z"/>
<path d="M9010 2916 c0 -10 6 -13 15 -10 10 4 15 0 15 -11 0 -11 7 -15 22 -13
29 4 36 28 8 28 -12 0 -30 5 -41 10 -15 8 -19 7 -19 -4z"/>
<path d="M6591 2877 c-1 -10 -12 -29 -26 -42 -16 -14 -22 -26 -15 -30 5 -3 13
1 16 9 3 9 10 14 15 11 13 -9 27 28 18 50 -7 18 -8 18 -8 2z"/>
<path d="M6696 2882 c-3 -6 6 -20 21 -31 20 -17 28 -19 34 -9 6 9 1 16 -14 23
-12 5 -25 13 -28 18 -4 5 -9 5 -13 -1z"/>
<path d="M8970 2870 c0 -5 7 -10 15 -10 8 0 15 5 15 10 0 6 -7 10 -15 10 -8 0
-15 -4 -15 -10z"/>
<path d="M6515 2748 c-15 -65 -15 -69 -4 -63 6 4 8 13 5 21 -3 8 1 14 9 14 10
0 15 10 15 30 0 40 -16 38 -25 -2z"/>
<path d="M9227 2756 c-3 -8 -3 -17 0 -20 7 -7 33 13 33 25 0 15 -27 10 -33 -5z"/>
<path d="M6868 2722 c-10 -4 -17 -10 -18 -14 0 -5 0 -18 0 -31 0 -13 -9 -33
-20 -45 -11 -12 -20 -30 -20 -40 0 -20 -34 -62 -51 -62 -5 0 -9 -6 -7 -12 5
-27 -15 -59 -44 -74 -24 -12 -29 -21 -25 -40 3 -17 -1 -25 -14 -29 -24 -8 -42
-42 -36 -66 4 -16 -3 -22 -37 -31 -38 -10 -42 -14 -38 -38 3 -20 -2 -32 -19
-43 -19 -14 -20 -17 -7 -22 16 -6 73 41 73 60 0 6 9 20 20 32 11 11 31 39 45
62 13 22 29 41 35 41 11 0 35 46 35 66 0 7 6 17 14 21 19 10 66 80 66 97 0 8
7 19 15 26 8 7 15 17 15 22 0 6 13 27 28 47 37 46 47 81 24 80 -10 0 -25 -3
-34 -7z"/>
<path d="M9197 2683 c-4 -3 -7 -11 -7 -17 0 -6 5 -5 12 2 6 6 9 14 7 17 -3 3
-9 2 -12 -2z"/>
<path d="M6460 2650 c0 -5 5 -10 11 -10 5 0 7 5 4 10 -3 6 -8 10 -11 10 -2 0
-4 -4 -4 -10z"/>
<path d="M6446 2622 c7 -4 14 -16 17 -27 4 -15 5 -14 6 8 1 20 -4 27 -16 27
-12 0 -14 -3 -7 -8z"/>
<path d="M6185 2260 c-3 -5 -2 -10 4 -10 5 0 13 5 16 10 3 6 2 10 -4 10 -5 0
-13 -4 -16 -10z"/>
<path d="M6222 2235 c0 -16 2 -22 5 -12 2 9 2 23 0 30 -3 6 -5 -1 -5 -18z"/>
<path d="M6114 2214 c-4 -10 -21 -35 -38 -54 -23 -26 -24 -29 -5 -12 14 12 31
22 37 22 6 0 14 11 18 25 8 31 -3 46 -12 19z"/>
<path d="M6497 2150 c-21 -25 -22 -40 -2 -40 8 0 15 9 15 20 0 11 5 20 10 20
6 0 10 5 10 10 0 16 -14 12 -33 -10z"/>
<path d="M6031 2124 c0 -11 3 -14 6 -6 3 7 2 16 -1 19 -3 4 -6 -2 -5 -13z"/>
<path d="M5859 2115 c-26 -14 -46 -55 -28 -55 5 0 9 5 9 10 0 6 7 10 15 10 8
0 15 4 15 9 0 5 7 17 16 25 19 20 8 20 -27 1z"/>
<path d="M5990 2088 c0 -4 7 -8 15 -8 8 0 15 4 15 8 0 5 -7 9 -15 9 -8 0 -15
-4 -15 -9z"/>
<path d="M5780 2045 c0 -9 -9 -15 -25 -15 -30 0 -69 -36 -61 -56 5 -12 9 -12
25 3 11 9 18 20 15 25 -3 4 1 5 9 2 8 -3 21 1 28 8 8 8 22 17 32 21 10 4 15
11 12 17 -10 15 -35 12 -35 -5z"/>
<path d="M6400 2045 c0 -8 7 -15 15 -15 8 0 15 7 15 15 0 8 -7 15 -15 15 -8 0
-15 -7 -15 -15z"/>
<path d="M6350 1975 c0 -8 4 -15 8 -15 5 0 9 7 9 15 0 8 -4 15 -9 15 -4 0 -8
-7 -8 -15z"/>
<path d="M5642 1951 c-10 -6 -10 -10 1 -20 12 -9 16 -8 20 3 7 19 -4 27 -21
17z"/>
<path d="M6315 1930 c-3 -5 -1 -10 4 -10 6 0 11 5 11 10 0 6 -2 10 -4 10 -3 0
-8 -4 -11 -10z"/>
<path d="M6265 1896 c-16 -11 -37 -29 -46 -38 -9 -10 -28 -18 -43 -18 -14 0
-26 -4 -26 -10 0 -5 -6 -10 -12 -10 -15 -1 -79 -82 -72 -90 3 -3 10 3 15 13 6
9 17 17 25 17 9 0 30 16 48 35 19 19 39 35 45 35 19 0 61 31 55 41 -3 5 1 6 9
4 15 -6 53 30 40 38 -4 2 -21 -5 -38 -17z"/>
<path d="M5757 1833 c-12 -11 -8 -23 8 -23 8 0 15 7 15 15 0 16 -12 20 -23 8z"/>
<path d="M5989 1663 c-13 -16 -12 -17 4 -4 16 13 21 21 13 21 -2 0 -10 -8 -17
-17z"/>
</g>
</svg>
